<svg width="208" height="36" viewBox="0 0 208 36" fill="none" xmlns="http://www.w3.org/2000/svg">
<g opacity="0.8">
<path fill-rule="evenodd" clip-rule="evenodd" d="M18.6626 18.9375C18.6626 18.5095 19.0096 18.1625 19.4376 18.1625H23.8126C24.2406 18.1625 24.5876 18.5095 24.5876 18.9375C24.5876 19.3655 24.2406 19.7125 23.8126 19.7125H20.2126V24.5625C20.2126 24.9905 19.8656 25.3375 19.4376 25.3375C19.0096 25.3375 18.6626 24.9905 18.6626 24.5625V18.9375Z" fill="white"/>
<path fill-rule="evenodd" clip-rule="evenodd" d="M17.4126 24.5625C17.4126 24.1345 17.7596 23.7875 18.1876 23.7875H33.8126C34.2406 23.7875 34.5876 24.1345 34.5876 24.5625C34.5876 24.9905 34.2406 25.3375 33.8126 25.3375H18.1876C17.7596 25.3375 17.4126 24.9905 17.4126 24.5625Z" fill="white"/>
<path fill-rule="evenodd" clip-rule="evenodd" d="M23.0376 15.1875C23.0376 14.7595 23.3846 14.4125 23.8126 14.4125H28.1876C28.6156 14.4125 28.9626 14.7595 28.9626 15.1875C28.9626 15.6155 28.6156 15.9625 28.1876 15.9625H24.5876V24.5625C24.5876 24.9905 24.2406 25.3375 23.8126 25.3375C23.3846 25.3375 23.0376 24.9905 23.0376 24.5625V15.1875Z" fill="white"/>
<path fill-rule="evenodd" clip-rule="evenodd" d="M27.4126 11.4375C27.4126 11.0095 27.7596 10.6625 28.1876 10.6625H32.5626C32.9906 10.6625 33.3376 11.0095 33.3376 11.4375V24.5625C33.3376 24.9905 32.9906 25.3375 32.5626 25.3375H28.1876C27.7596 25.3375 27.4126 24.9905 27.4126 24.5625V11.4375ZM28.9626 12.2125V23.7875H31.7876V12.2125H28.9626Z" fill="white"/>
</g>
<path opacity="0.8" d="M49.9787 23H48.348L52.0121 12.8182H53.7869L57.451 23H55.8203L52.9418 14.6676H52.8622L49.9787 23ZM50.2521 19.0128H55.5419V20.3054H50.2521V19.0128ZM60.2885 18.4659V23H58.802V15.3636H60.2289V16.6065H60.3233C60.499 16.2022 60.7741 15.8774 61.1486 15.6321C61.5265 15.3868 62.0021 15.2642 62.5755 15.2642C63.0958 15.2642 63.5516 15.3736 63.9426 15.5923C64.3337 15.8078 64.637 16.1293 64.8525 16.5568C65.0679 16.9844 65.1756 17.513 65.1756 18.1428V23H63.6891V18.3217C63.6891 17.7682 63.5449 17.3357 63.2566 17.0241C62.9682 16.7093 62.5721 16.5518 62.0684 16.5518C61.7237 16.5518 61.4171 16.6264 61.1486 16.7756C60.8835 16.9247 60.673 17.1435 60.5172 17.4318C60.3648 17.7169 60.2885 18.0616 60.2885 18.4659ZM69.3915 23.169C68.9076 23.169 68.4701 23.0795 68.079 22.9006C67.6879 22.7183 67.378 22.4548 67.1493 22.1101C66.9239 21.7654 66.8113 21.3428 66.8113 20.8423C66.8113 20.4115 66.8941 20.0568 67.0598 19.7784C67.2256 19.5 67.4493 19.2796 67.731 19.1172C68.0127 18.9548 68.3276 18.8321 68.6756 18.7493C69.0236 18.6664 69.3783 18.6035 69.7395 18.5604C70.1969 18.5073 70.5681 18.4643 70.8532 18.4311C71.1382 18.3946 71.3453 18.3366 71.4746 18.2571C71.6039 18.1776 71.6685 18.0483 71.6685 17.8693V17.8345C71.6685 17.4003 71.5459 17.0639 71.3006 16.8253C71.0587 16.5866 70.6974 16.4673 70.2168 16.4673C69.7163 16.4673 69.3219 16.5784 69.0336 16.8004C68.7485 17.0192 68.5513 17.2628 68.4419 17.5312L67.0449 17.2131C67.2106 16.7491 67.4526 16.3745 67.7708 16.0895C68.0923 15.8011 68.4618 15.5923 68.8794 15.4631C69.2971 15.3305 69.7362 15.2642 70.1969 15.2642C70.5018 15.2642 70.825 15.3007 71.1664 15.3736C71.5111 15.4432 71.8326 15.5724 72.1309 15.7614C72.4325 15.9503 72.6794 16.2204 72.8716 16.5717C73.0639 16.9197 73.16 17.3722 73.16 17.929V23H71.7083V21.956H71.6486C71.5525 22.1482 71.4083 22.3371 71.2161 22.5227C71.0239 22.7083 70.7769 22.8625 70.4753 22.9851C70.1737 23.1077 69.8124 23.169 69.3915 23.169ZM69.7147 21.9759C70.1257 21.9759 70.477 21.8946 70.7686 21.7322C71.0636 21.5698 71.2873 21.3577 71.4398 21.0959C71.5956 20.8307 71.6735 20.5473 71.6735 20.2457V19.2614C71.6204 19.3144 71.5177 19.3641 71.3652 19.4105C71.2161 19.4536 71.0454 19.4917 70.8532 19.5249C70.6609 19.5547 70.4737 19.5829 70.2914 19.6094C70.1091 19.6326 69.9566 19.6525 69.834 19.669C69.5456 19.7055 69.2821 19.7668 69.0435 19.853C68.8082 19.9392 68.6193 20.0634 68.4767 20.2259C68.3375 20.3849 68.2679 20.5971 68.2679 20.8622C68.2679 21.2301 68.4038 21.5085 68.6756 21.6974C68.9474 21.883 69.2937 21.9759 69.7147 21.9759ZM76.6264 12.8182V23H75.1399V12.8182H76.6264ZM79.5659 25.8636C79.3438 25.8636 79.1416 25.8454 78.9593 25.8089C78.777 25.7758 78.6412 25.7393 78.5517 25.6996L78.9096 24.4815C79.1814 24.5545 79.4234 24.5859 79.6355 24.576C79.8476 24.5661 80.0349 24.4865 80.1973 24.3374C80.363 24.1882 80.5088 23.9446 80.6348 23.6065L80.8187 23.0994L78.0247 15.3636H79.6156L81.5495 21.2898H81.6291L83.563 15.3636H85.1589L82.0119 24.0192C81.8661 24.4169 81.6805 24.7533 81.4551 25.0284C81.2297 25.3068 80.9612 25.5156 80.6497 25.6548C80.3381 25.794 79.9769 25.8636 79.5659 25.8636ZM90.1206 15.3636V16.5568H85.9494V15.3636H90.1206ZM87.068 13.5341H88.5545V20.7578C88.5545 21.0462 88.5976 21.2633 88.6838 21.4091C88.7699 21.5516 88.881 21.6494 89.0169 21.7024C89.1561 21.7521 89.3069 21.777 89.4693 21.777C89.5886 21.777 89.693 21.7687 89.7825 21.7521C89.872 21.7356 89.9416 21.7223 89.9913 21.7124L90.2598 22.9403C90.1736 22.9735 90.051 23.0066 89.8919 23.0398C89.7328 23.0762 89.5339 23.0961 89.2953 23.0994C88.9042 23.1061 88.5396 23.0365 88.2015 22.8906C87.8635 22.7448 87.59 22.5194 87.3812 22.2145C87.1724 21.9096 87.068 21.5268 87.068 21.0661V13.5341ZM91.7649 23V15.3636H93.2514V23H91.7649ZM92.5156 14.1854C92.2571 14.1854 92.035 14.0992 91.8494 13.9268C91.6671 13.7512 91.576 13.5424 91.576 13.3004C91.576 13.0552 91.6671 12.8464 91.8494 12.674C92.035 12.4983 92.2571 12.4105 92.5156 12.4105C92.7741 12.4105 92.9946 12.4983 93.1768 12.674C93.3625 12.8464 93.4553 13.0552 93.4553 13.3004C93.4553 13.5424 93.3625 13.7512 93.1768 13.9268C92.9946 14.0992 92.7741 14.1854 92.5156 14.1854ZM98.4679 23.1541C97.7288 23.1541 97.0924 22.9867 96.5588 22.652C96.0285 22.3139 95.6208 21.8482 95.3358 21.255C95.0507 20.6617 94.9082 19.9822 94.9082 19.2166C94.9082 18.4411 95.054 17.7566 95.3457 17.1634C95.6374 16.5668 96.0484 16.1011 96.5787 15.7663C97.109 15.4316 97.7337 15.2642 98.4529 15.2642C99.033 15.2642 99.55 15.3719 100.004 15.5874C100.458 15.7995 100.824 16.0978 101.103 16.4822C101.385 16.8667 101.552 17.3158 101.605 17.8295H100.158C100.079 17.4716 99.8964 17.1634 99.6113 16.9048C99.3296 16.6463 98.9518 16.517 98.4778 16.517C98.0635 16.517 97.7006 16.6264 97.389 16.8452C97.0808 17.0606 96.8405 17.3688 96.6681 17.7699C96.4958 18.1676 96.4096 18.6383 96.4096 19.1818C96.4096 19.7386 96.4941 20.2192 96.6632 20.6236C96.8322 21.0279 97.0708 21.3411 97.3791 21.5632C97.6906 21.7853 98.0569 21.8963 98.4778 21.8963C98.7595 21.8963 99.0147 21.8449 99.2434 21.7422C99.4754 21.6361 99.6693 21.4853 99.8251 21.2898C99.9842 21.0942 100.095 20.8589 100.158 20.5838H101.605C101.552 21.0777 101.391 21.5185 101.123 21.9062C100.854 22.294 100.495 22.599 100.044 22.821C99.5964 23.0431 99.0711 23.1541 98.4679 23.1541ZM108.917 17.228L107.57 17.4666C107.513 17.2943 107.424 17.1302 107.301 16.9744C107.182 16.8187 107.019 16.6911 106.814 16.5916C106.608 16.4922 106.352 16.4425 106.043 16.4425C105.622 16.4425 105.271 16.5369 104.989 16.7259C104.708 16.9115 104.567 17.1518 104.567 17.4467C104.567 17.7019 104.661 17.9074 104.85 18.0632C105.039 18.219 105.344 18.3466 105.765 18.446L106.978 18.7244C107.681 18.8868 108.204 19.1371 108.549 19.4751C108.894 19.8132 109.066 20.2524 109.066 20.7926C109.066 21.25 108.933 21.6577 108.668 22.0156C108.406 22.3703 108.04 22.6487 107.57 22.8509C107.102 23.053 106.56 23.1541 105.944 23.1541C105.089 23.1541 104.391 22.9718 103.851 22.6072C103.311 22.2393 102.979 21.7173 102.857 21.0412L104.293 20.8224C104.383 21.197 104.567 21.4804 104.845 21.6726C105.124 21.8615 105.487 21.956 105.934 21.956C106.421 21.956 106.811 21.8549 107.102 21.6527C107.394 21.4472 107.54 21.197 107.54 20.902C107.54 20.6634 107.45 20.4628 107.271 20.3004C107.096 20.138 106.826 20.0154 106.461 19.9325L105.168 19.6491C104.456 19.4867 103.929 19.2282 103.587 18.8736C103.249 18.5189 103.08 18.0698 103.08 17.5263C103.08 17.0755 103.206 16.6811 103.458 16.343C103.71 16.005 104.058 15.7415 104.502 15.5526C104.946 15.3603 105.455 15.2642 106.028 15.2642C106.854 15.2642 107.503 15.4432 107.977 15.8011C108.451 16.1558 108.764 16.6314 108.917 17.228Z" fill="white"/>
</svg>
