<svg width="208" height="36" viewBox="0 0 208 36" fill="none" xmlns="http://www.w3.org/2000/svg">
<g opacity="0.8" clip-path="url(#clip0_70900_17419)">
<path d="M20.8751 18.5889C21.6345 18.5889 22.2501 17.9733 22.2501 17.2139C22.2501 16.4545 21.6345 15.8389 20.8751 15.8389C20.1157 15.8389 19.5001 16.4545 19.5001 17.2139C19.5001 17.9733 20.1157 18.5889 20.8751 18.5889Z" fill="white"/>
<path d="M25 13.4639C25 14.2233 24.3844 14.8389 23.625 14.8389C22.8656 14.8389 22.25 14.2233 22.25 13.4639C22.25 12.7045 22.8656 12.0889 23.625 12.0889C24.3844 12.0889 25 12.7045 25 13.4639Z" fill="white"/>
<path d="M28.3751 14.8389C29.1345 14.8389 29.7501 14.2233 29.7501 13.4639C29.7501 12.7045 29.1345 12.0889 28.3751 12.0889C27.6157 12.0889 27.0001 12.7045 27.0001 13.4639C27.0001 14.2233 27.6157 14.8389 28.3751 14.8389Z" fill="white"/>
<path d="M32.5 17.2139C32.5 17.9733 31.8844 18.5889 31.125 18.5889C30.3656 18.5889 29.75 17.9733 29.75 17.2139C29.75 16.4545 30.3656 15.8389 31.125 15.8389C31.8844 15.8389 32.5 16.4545 32.5 17.2139Z" fill="white"/>
<path fill-rule="evenodd" clip-rule="evenodd" d="M26 27.375C20.875 27.375 16.625 23.125 16.625 18C16.625 12.875 20.875 8.625 26 8.625C31.125 8.625 35.375 12.375 35.375 17C35.375 20 32.875 22.5 29.875 22.5H28.125C27.75 22.5 27.375 22.875 27.375 23.25C27.375 23.5 27.5 23.625 27.625 23.75C28 24.125 28.125 24.625 28.125 25.125C28.125 26.375 27.125 27.375 26 27.375ZM26 10C21.625 10 18 13.625 18 18C18 22.375 21.625 26 26 26C26.375 26 26.75 25.625 26.75 25.25C26.75 25 26.625 24.875 26.5 24.75C26.125 24.375 26 23.875 26 23.375C26 22.25 27 21.25 28.125 21.25H29.875C32.125 21.25 34 19.375 34 17.125C34 13.125 30.375 10 26 10Z" fill="white"/>
</g>
<path opacity="0.8" d="M49.9787 23H48.348L52.0121 12.8182H53.7869L57.451 23H55.8203L52.9418 14.6676H52.8622L49.9787 23ZM50.2521 19.0128H55.5419V20.3054H50.2521V19.0128ZM58.802 25.8636V15.3636H60.2537V16.6016H60.378C60.4642 16.4425 60.5885 16.2585 60.7509 16.0497C60.9133 15.8409 61.1387 15.6586 61.427 15.5028C61.7154 15.3438 62.0965 15.2642 62.5705 15.2642C63.187 15.2642 63.7372 15.42 64.2211 15.7315C64.705 16.0431 65.0845 16.4922 65.3596 17.0788C65.638 17.6655 65.7772 18.3714 65.7772 19.1967C65.7772 20.022 65.6396 20.7296 65.3645 21.3196C65.0894 21.9062 64.7116 22.3587 64.231 22.6768C63.7504 22.9917 63.2019 23.1491 62.5854 23.1491C62.1214 23.1491 61.7419 23.0713 61.4469 22.9155C61.1552 22.7597 60.9266 22.5774 60.7608 22.3686C60.5951 22.1598 60.4675 21.9742 60.378 21.8118H60.2885V25.8636H58.802ZM60.2587 19.1818C60.2587 19.7187 60.3366 20.1894 60.4924 20.5938C60.6481 20.9981 60.8735 21.3146 61.1685 21.5433C61.4635 21.7687 61.8248 21.8814 62.2523 21.8814C62.6964 21.8814 63.0676 21.7637 63.3659 21.5284C63.6642 21.2898 63.8896 20.9666 64.0421 20.5589C64.1979 20.1513 64.2757 19.6922 64.2757 19.1818C64.2757 18.678 64.1995 18.2256 64.0471 17.8246C63.8979 17.4235 63.6725 17.107 63.3709 16.875C63.0726 16.643 62.6998 16.527 62.2523 16.527C61.8214 16.527 61.4569 16.638 61.1586 16.8601C60.8636 17.0821 60.6399 17.392 60.4874 17.7898C60.3349 18.1875 60.2587 18.6515 60.2587 19.1818ZM67.4426 25.8636V15.3636H68.8944V16.6016H69.0186C69.1048 16.4425 69.2291 16.2585 69.3915 16.0497C69.5539 15.8409 69.7793 15.6586 70.0676 15.5028C70.356 15.3438 70.7372 15.2642 71.2111 15.2642C71.8276 15.2642 72.3778 15.42 72.8617 15.7315C73.3456 16.0431 73.7251 16.4922 74.0002 17.0788C74.2786 17.6655 74.4178 18.3714 74.4178 19.1967C74.4178 20.022 74.2802 20.7296 74.0051 21.3196C73.7301 21.9062 73.3522 22.3587 72.8716 22.6768C72.391 22.9917 71.8425 23.1491 71.226 23.1491C70.762 23.1491 70.3825 23.0713 70.0875 22.9155C69.7959 22.7597 69.5672 22.5774 69.4015 22.3686C69.2357 22.1598 69.1081 21.9742 69.0186 21.8118H68.9292V25.8636H67.4426ZM68.8993 19.1818C68.8993 19.7187 68.9772 20.1894 69.133 20.5938C69.2888 20.9981 69.5141 21.3146 69.8091 21.5433C70.1041 21.7687 70.4654 21.8814 70.8929 21.8814C71.3371 21.8814 71.7083 21.7637 72.0066 21.5284C72.3049 21.2898 72.5302 20.9666 72.6827 20.5589C72.8385 20.1513 72.9164 19.6922 72.9164 19.1818C72.9164 18.678 72.8401 18.2256 72.6877 17.8246C72.5385 17.4235 72.3132 17.107 72.0115 16.875C71.7132 16.643 71.3404 16.527 70.8929 16.527C70.4621 16.527 70.0975 16.638 69.7992 16.8601C69.5042 17.0821 69.2805 17.392 69.128 17.7898C68.9756 18.1875 68.8993 18.6515 68.8993 19.1818ZM79.3745 23.1541C78.6221 23.1541 77.9741 22.9934 77.4306 22.6719C76.8903 22.3471 76.4727 21.8913 76.1777 21.3047C75.8861 20.7147 75.7402 20.0237 75.7402 19.2315C75.7402 18.4493 75.8861 17.7599 76.1777 17.1634C76.4727 16.5668 76.8837 16.1011 77.4107 15.7663C77.941 15.4316 78.5608 15.2642 79.2701 15.2642C79.7009 15.2642 80.1185 15.3355 80.5229 15.478C80.9273 15.6205 81.2902 15.8442 81.6117 16.1491C81.9332 16.4541 82.1867 16.8501 82.3723 17.3374C82.5579 17.8213 82.6507 18.4096 82.6507 19.1023V19.6293H76.5804V18.5156H81.1941C81.1941 18.1245 81.1145 17.7782 80.9554 17.4766C80.7963 17.1716 80.5726 16.9313 80.2843 16.7557C79.9992 16.58 79.6645 16.4922 79.28 16.4922C78.8624 16.4922 78.4978 16.5949 78.1863 16.8004C77.878 17.0026 77.6394 17.2678 77.4703 17.5959C77.3046 17.9207 77.2218 18.2737 77.2218 18.6548V19.5249C77.2218 20.0353 77.3113 20.4695 77.4902 20.8274C77.6725 21.1854 77.9261 21.4588 78.2509 21.6477C78.5757 21.8333 78.9552 21.9261 79.3894 21.9261C79.6711 21.9261 79.928 21.8864 80.16 21.8068C80.392 21.724 80.5925 21.6013 80.7615 21.4389C80.9306 21.2765 81.0598 21.076 81.1493 20.8374L82.5563 21.0909C82.4436 21.5052 82.2414 21.8681 81.9498 22.1797C81.6614 22.4879 81.2985 22.7282 80.861 22.9006C80.4268 23.0696 79.9313 23.1541 79.3745 23.1541ZM86.5224 23.169C86.0385 23.169 85.601 23.0795 85.2099 22.9006C84.8188 22.7183 84.5089 22.4548 84.2802 22.1101C84.0548 21.7654 83.9421 21.3428 83.9421 20.8423C83.9421 20.4115 84.025 20.0568 84.1907 19.7784C84.3564 19.5 84.5801 19.2796 84.8619 19.1172C85.1436 18.9548 85.4585 18.8321 85.8065 18.7493C86.1545 18.6664 86.5091 18.6035 86.8704 18.5604C87.3278 18.5073 87.699 18.4643 87.984 18.4311C88.2691 18.3946 88.4762 18.3366 88.6055 18.2571C88.7347 18.1776 88.7994 18.0483 88.7994 17.8693V17.8345C88.7994 17.4003 88.6767 17.0639 88.4315 16.8253C88.1895 16.5866 87.8282 16.4673 87.3477 16.4673C86.8472 16.4673 86.4528 16.5784 86.1644 16.8004C85.8794 17.0192 85.6822 17.2628 85.5728 17.5312L84.1758 17.2131C84.3415 16.7491 84.5835 16.3745 84.9016 16.0895C85.2231 15.8011 85.5927 15.5923 86.0103 15.4631C86.4279 15.3305 86.8671 15.2642 87.3278 15.2642C87.6327 15.2642 87.9558 15.3007 88.2972 15.3736C88.6419 15.4432 88.9634 15.5724 89.2617 15.7614C89.5633 15.9503 89.8103 16.2204 90.0025 16.5717C90.1947 16.9197 90.2908 17.3722 90.2908 17.929V23H88.8391V21.956H88.7795C88.6834 22.1482 88.5392 22.3371 88.3469 22.5227C88.1547 22.7083 87.9078 22.8625 87.6062 22.9851C87.3046 23.1077 86.9433 23.169 86.5224 23.169ZM86.8455 21.9759C87.2565 21.9759 87.6078 21.8946 87.8995 21.7322C88.1945 21.5698 88.4182 21.3577 88.5707 21.0959C88.7264 20.8307 88.8043 20.5473 88.8043 20.2457V19.2614C88.7513 19.3144 88.6486 19.3641 88.4961 19.4105C88.3469 19.4536 88.1763 19.4917 87.984 19.5249C87.7918 19.5547 87.6045 19.5829 87.4222 19.6094C87.2399 19.6326 87.0875 19.6525 86.9648 19.669C86.6765 19.7055 86.413 19.7668 86.1744 19.853C85.939 19.9392 85.7501 20.0634 85.6076 20.2259C85.4684 20.3849 85.3988 20.5971 85.3988 20.8622C85.3988 21.2301 85.5347 21.5085 85.8065 21.6974C86.0782 21.883 86.4246 21.9759 86.8455 21.9759ZM92.2708 23V15.3636H93.7076V16.5767H93.7871C93.9263 16.1657 94.1716 15.8426 94.5229 15.6072C94.8775 15.3686 95.2786 15.2493 95.726 15.2493C95.8188 15.2493 95.9282 15.2526 96.0542 15.2592C96.1834 15.2659 96.2845 15.2741 96.3574 15.2841V16.706C96.2978 16.6894 96.1917 16.6712 96.0392 16.6513C95.8868 16.6281 95.7343 16.6165 95.5819 16.6165C95.2305 16.6165 94.9173 16.6911 94.6422 16.8402C94.3704 16.986 94.155 17.1899 93.9959 17.4517C93.8368 17.7102 93.7573 18.0052 93.7573 18.3366V23H92.2708ZM99.7978 23.169C99.3139 23.169 98.8764 23.0795 98.4853 22.9006C98.0942 22.7183 97.7843 22.4548 97.5556 22.1101C97.3302 21.7654 97.2175 21.3428 97.2175 20.8423C97.2175 20.4115 97.3004 20.0568 97.4661 19.7784C97.6318 19.5 97.8555 19.2796 98.1373 19.1172C98.419 18.9548 98.7338 18.8321 99.0819 18.7493C99.4299 18.6664 99.7845 18.6035 100.146 18.5604C100.603 18.5073 100.974 18.4643 101.259 18.4311C101.544 18.3946 101.752 18.3366 101.881 18.2571C102.01 18.1776 102.075 18.0483 102.075 17.8693V17.8345C102.075 17.4003 101.952 17.0639 101.707 16.8253C101.465 16.5866 101.104 16.4673 100.623 16.4673C100.123 16.4673 99.7282 16.5784 99.4398 16.8004C99.1548 17.0192 98.9576 17.2628 98.8482 17.5312L97.4512 17.2131C97.6169 16.7491 97.8588 16.3745 98.177 16.0895C98.4985 15.8011 98.8681 15.5923 99.2857 15.4631C99.7033 15.3305 100.142 15.2642 100.603 15.2642C100.908 15.2642 101.231 15.3007 101.573 15.3736C101.917 15.4432 102.239 15.5724 102.537 15.7614C102.839 15.9503 103.086 16.2204 103.278 16.5717C103.47 16.9197 103.566 17.3722 103.566 17.929V23H102.115V21.956H102.055C101.959 22.1482 101.815 22.3371 101.622 22.5227C101.43 22.7083 101.183 22.8625 100.882 22.9851C100.58 23.1077 100.219 23.169 99.7978 23.169ZM100.121 21.9759C100.532 21.9759 100.883 21.8946 101.175 21.7322C101.47 21.5698 101.694 21.3577 101.846 21.0959C102.002 20.8307 102.08 20.5473 102.08 20.2457V19.2614C102.027 19.3144 101.924 19.3641 101.771 19.4105C101.622 19.4536 101.452 19.4917 101.259 19.5249C101.067 19.5547 100.88 19.5829 100.698 19.6094C100.515 19.6326 100.363 19.6525 100.24 19.669C99.9519 19.7055 99.6884 19.7668 99.4498 19.853C99.2144 19.9392 99.0255 20.0634 98.883 20.2259C98.7438 20.3849 98.6742 20.5971 98.6742 20.8622C98.6742 21.2301 98.8101 21.5085 99.0819 21.6974C99.3536 21.883 99.7 21.9759 100.121 21.9759ZM107.033 18.4659V23H105.546V15.3636H106.973V16.6065H107.067C107.243 16.2022 107.518 15.8774 107.893 15.6321C108.271 15.3868 108.746 15.2642 109.32 15.2642C109.84 15.2642 110.296 15.3736 110.687 15.5923C111.078 15.8078 111.381 16.1293 111.597 16.5568C111.812 16.9844 111.92 17.513 111.92 18.1428V23H110.433V18.3217C110.433 17.7682 110.289 17.3357 110.001 17.0241C109.712 16.7093 109.316 16.5518 108.812 16.5518C108.468 16.5518 108.161 16.6264 107.893 16.7756C107.628 16.9247 107.417 17.1435 107.261 17.4318C107.109 17.7169 107.033 18.0616 107.033 18.4659ZM117.13 23.1541C116.391 23.1541 115.754 22.9867 115.221 22.652C114.691 22.3139 114.283 21.8482 113.998 21.255C113.713 20.6617 113.57 19.9822 113.57 19.2166C113.57 18.4411 113.716 17.7566 114.008 17.1634C114.299 16.5668 114.71 16.1011 115.241 15.7663C115.771 15.4316 116.396 15.2642 117.115 15.2642C117.695 15.2642 118.212 15.3719 118.666 15.5874C119.12 15.7995 119.487 16.0978 119.765 16.4822C120.047 16.8667 120.214 17.3158 120.267 17.8295H118.82C118.741 17.4716 118.558 17.1634 118.273 16.9048C117.992 16.6463 117.614 16.517 117.14 16.517C116.726 16.517 116.363 16.6264 116.051 16.8452C115.743 17.0606 115.503 17.3688 115.33 17.7699C115.158 18.1676 115.072 18.6383 115.072 19.1818C115.072 19.7386 115.156 20.2192 115.325 20.6236C115.494 21.0279 115.733 21.3411 116.041 21.5632C116.353 21.7853 116.719 21.8963 117.14 21.8963C117.422 21.8963 117.677 21.8449 117.906 21.7422C118.138 21.6361 118.331 21.4853 118.487 21.2898C118.646 21.0942 118.757 20.8589 118.82 20.5838H120.267C120.214 21.0777 120.053 21.5185 119.785 21.9062C119.516 22.294 119.157 22.599 118.706 22.821C118.259 23.0431 117.733 23.1541 117.13 23.1541ZM125.148 23.1541C124.396 23.1541 123.748 22.9934 123.204 22.6719C122.664 22.3471 122.246 21.8913 121.951 21.3047C121.66 20.7147 121.514 20.0237 121.514 19.2315C121.514 18.4493 121.66 17.7599 121.951 17.1634C122.246 16.5668 122.657 16.1011 123.184 15.7663C123.714 15.4316 124.334 15.2642 125.044 15.2642C125.474 15.2642 125.892 15.3355 126.296 15.478C126.701 15.6205 127.064 15.8442 127.385 16.1491C127.707 16.4541 127.96 16.8501 128.146 17.3374C128.331 17.8213 128.424 18.4096 128.424 19.1023V19.6293H122.354V18.5156H126.968C126.968 18.1245 126.888 17.7782 126.729 17.4766C126.57 17.1716 126.346 16.9313 126.058 16.7557C125.773 16.58 125.438 16.4922 125.053 16.4922C124.636 16.4922 124.271 16.5949 123.96 16.8004C123.651 17.0026 123.413 17.2678 123.244 17.5959C123.078 17.9207 122.995 18.2737 122.995 18.6548V19.5249C122.995 20.0353 123.085 20.4695 123.264 20.8274C123.446 21.1854 123.7 21.4588 124.024 21.6477C124.349 21.8333 124.729 21.9261 125.163 21.9261C125.445 21.9261 125.701 21.8864 125.933 21.8068C126.165 21.724 126.366 21.6013 126.535 21.4389C126.704 21.2765 126.833 21.076 126.923 20.8374L128.33 21.0909C128.217 21.5052 128.015 21.8681 127.723 22.1797C127.435 22.4879 127.072 22.7282 126.634 22.9006C126.2 23.0696 125.705 23.1541 125.148 23.1541Z" fill="white"/>
<defs>
<clipPath id="clip0_70900_17419">
<rect width="20" height="20" fill="white" transform="translate(16 8)"/>
</clipPath>
</defs>
</svg>
