<svg width="208" height="36" viewBox="0 0 208 36" fill="none" xmlns="http://www.w3.org/2000/svg">
<g opacity="0.8">
<path fill-rule="evenodd" clip-rule="evenodd" d="M30.6125 23.25V24.7875C30.6142 24.8854 30.5963 24.9826 30.56 25.0736C30.5236 25.1645 30.4696 25.2473 30.4009 25.3171C30.3323 25.3869 30.2505 25.4423 30.1601 25.4802C30.0698 25.518 29.9729 25.5375 29.875 25.5375C29.6761 25.5375 29.4853 25.4585 29.3446 25.3178C29.204 25.1772 29.125 24.9864 29.125 24.7875V23.25C29.125 22.6267 28.8774 22.029 28.4367 21.5883C27.996 21.1476 27.3982 20.9 26.775 20.9H20.5875C19.9664 20.9033 19.3719 21.1523 18.9339 21.5927C18.4959 22.033 18.25 22.6289 18.25 23.25V24.7875C18.25 24.9864 18.171 25.1772 18.0303 25.3178C17.8897 25.4585 17.6989 25.5375 17.5 25.5375C17.3011 25.5375 17.1103 25.4585 16.9697 25.3178C16.829 25.1772 16.75 24.9864 16.75 24.7875V23.25C16.75 22.2322 17.1543 21.2561 17.874 20.5365C18.5936 19.8168 19.5697 19.4125 20.5875 19.4125H26.775C27.2794 19.4108 27.7791 19.509 28.2455 19.7012C28.7118 19.8935 29.1355 20.1761 29.4922 20.5328C29.8489 20.8894 30.1315 21.3132 30.3237 21.7795C30.516 22.2458 30.6141 22.7456 30.6125 23.25Z" fill="white"/>
<path fill-rule="evenodd" clip-rule="evenodd" d="M23.65 10.125C22.891 10.125 22.1491 10.3501 21.518 10.7717C20.8869 11.1934 20.3951 11.7928 20.1046 12.494C19.8142 13.1952 19.7381 13.9667 19.8862 14.7111C20.0343 15.4555 20.3998 16.1393 20.9365 16.676C21.4732 17.2127 22.1569 17.5782 22.9013 17.7263C23.6457 17.8744 24.4173 17.7983 25.1185 17.5079C25.8197 17.2174 26.4191 16.7256 26.8407 16.0945C27.2624 15.4634 27.4875 14.7215 27.4875 13.9625C27.4842 12.9458 27.0788 11.9716 26.3599 11.2526C25.6409 10.5337 24.6667 10.1283 23.65 10.125ZM23.65 16.3125C23.1852 16.3125 22.7309 16.1747 22.3444 15.9165C21.9579 15.6583 21.6567 15.2912 21.4788 14.8618C21.301 14.4324 21.2545 13.9599 21.3451 13.5041C21.4358 13.0482 21.6596 12.6294 21.9883 12.3008C22.317 11.9721 22.7357 11.7483 23.1915 11.6577C23.6474 11.567 24.1199 11.6135 24.5493 11.7914C24.9787 11.9692 25.3457 12.2705 25.6039 12.6569C25.8622 13.0434 26 13.4977 26 13.9625C26 14.5858 25.7524 15.1835 25.3117 15.6242C24.871 16.0649 24.2732 16.3125 23.65 16.3125Z" fill="white"/>
<path fill-rule="evenodd" clip-rule="evenodd" d="M35.25 23.25V24.7875C35.2516 24.8854 35.2338 24.9826 35.1975 25.0736C35.1612 25.1645 35.1071 25.2473 35.0385 25.3171C34.9698 25.3869 34.8879 25.4423 34.7976 25.4802C34.7073 25.518 34.6104 25.5375 34.5125 25.5375C34.3136 25.5375 34.1228 25.4585 33.9822 25.3178C33.8415 25.1772 33.7625 24.9864 33.7625 24.7875V23.25C33.7646 22.7285 33.5922 22.2213 33.2728 21.8091C32.9535 21.3969 32.5054 21.1032 32 20.975C31.8079 20.925 31.6434 20.8009 31.5427 20.6298C31.4419 20.4588 31.4131 20.2548 31.4625 20.0625C31.488 19.968 31.5322 19.8796 31.5923 19.8023C31.6523 19.725 31.7272 19.6605 31.8125 19.6125C31.9244 19.5417 32.0552 19.5069 32.1875 19.5125C32.2494 19.5004 32.3131 19.5004 32.375 19.5125C33.2029 19.7247 33.9358 20.2081 34.4569 20.8855C34.978 21.5629 35.2572 22.3954 35.25 23.25Z" fill="white"/>
<path fill-rule="evenodd" clip-rule="evenodd" d="M32.1625 13.975C32.1696 14.8329 31.8891 15.6684 31.3657 16.3481C30.8423 17.0279 30.1062 17.5127 29.275 17.725C29.1809 17.7503 29.0828 17.7566 28.9862 17.7438C28.8897 17.7309 28.7966 17.699 28.7125 17.65C28.5442 17.5455 28.4231 17.3796 28.375 17.1875C28.3497 17.0934 28.3433 16.9953 28.3562 16.8987C28.3691 16.8022 28.4009 16.7092 28.45 16.625C28.5554 16.4576 28.7209 16.3368 28.9125 16.2875C29.4166 16.157 29.8631 15.8627 30.1818 15.4509C30.5005 15.0392 30.6735 14.5332 30.6735 14.0125C30.6735 13.4918 30.5005 12.9858 30.1818 12.574C29.8631 12.1622 29.4166 11.868 28.9125 11.7375C28.7199 11.6828 28.5549 11.5579 28.45 11.3875C28.4003 11.3036 28.368 11.2105 28.3551 11.1139C28.3422 11.0172 28.349 10.919 28.375 10.825C28.3983 10.7303 28.4402 10.6413 28.4982 10.5629C28.5562 10.4846 28.6291 10.4185 28.7128 10.3685C28.7965 10.3185 28.8893 10.2856 28.9858 10.2717C29.0823 10.2578 29.1806 10.2632 29.275 10.2875C30.0958 10.4972 30.8242 10.9726 31.3465 11.6396C31.8688 12.3067 32.1557 13.1278 32.1625 13.975Z" fill="white"/>
</g>
<path opacity="0.8" d="M49.9787 23H48.348L52.0121 12.8182H53.7869L57.451 23H55.8203L52.9418 14.6676H52.8622L49.9787 23ZM50.2521 19.0128H55.5419V20.3054H50.2521V19.0128ZM63.6394 19.8331V15.3636H65.1309V23H63.6692V21.6776H63.5897C63.414 22.0852 63.1323 22.425 62.7445 22.6967C62.36 22.9652 61.8811 23.0994 61.3077 23.0994C60.8172 23.0994 60.383 22.9917 60.0051 22.7763C59.6306 22.5575 59.3356 22.2344 59.1202 21.8068C58.9081 21.3793 58.802 20.8506 58.802 20.2209V15.3636H60.2885V20.0419C60.2885 20.5623 60.4327 20.9766 60.7211 21.2848C61.0094 21.593 61.3839 21.7472 61.8446 21.7472C62.123 21.7472 62.3998 21.6776 62.6749 21.5384C62.9533 21.3991 63.1837 21.1887 63.3659 20.907C63.5516 20.6252 63.6427 20.2673 63.6394 19.8331ZM69.9869 23.1491C69.3704 23.1491 68.8202 22.9917 68.3363 22.6768C67.8557 22.3587 67.4779 21.9062 67.2028 21.3196C66.931 20.7296 66.7951 20.022 66.7951 19.1967C66.7951 18.3714 66.9326 17.6655 67.2077 17.0788C67.4862 16.4922 67.8673 16.0431 68.3512 15.7315C68.8351 15.42 69.3836 15.2642 69.9968 15.2642C70.4708 15.2642 70.8519 15.3438 71.1403 15.5028C71.4319 15.6586 71.6573 15.8409 71.8164 16.0497C71.9788 16.2585 72.1048 16.4425 72.1942 16.6016H72.2837V12.8182H73.7702V23H72.3185V21.8118H72.1942C72.1048 21.9742 71.9755 22.1598 71.8065 22.3686C71.6407 22.5774 71.4121 22.7597 71.1204 22.9155C70.8287 23.0713 70.4509 23.1491 69.9869 23.1491ZM70.315 21.8814C70.7425 21.8814 71.1038 21.7687 71.3988 21.5433C71.6971 21.3146 71.9225 20.9981 72.0749 20.5938C72.2307 20.1894 72.3086 19.7187 72.3086 19.1818C72.3086 18.6515 72.2324 18.1875 72.0799 17.7898C71.9274 17.392 71.7037 17.0821 71.4087 16.8601C71.1138 16.638 70.7492 16.527 70.315 16.527C69.8675 16.527 69.4947 16.643 69.1964 16.875C68.8981 17.107 68.6727 17.4235 68.5202 17.8246C68.3711 18.2256 68.2965 18.678 68.2965 19.1818C68.2965 19.6922 68.3728 20.1513 68.5252 20.5589C68.6777 20.9666 68.9031 21.2898 69.2013 21.5284C69.503 21.7637 69.8742 21.8814 70.315 21.8814ZM75.8919 23V15.3636H77.3784V23H75.8919ZM76.6426 14.1854C76.3841 14.1854 76.162 14.0992 75.9764 13.9268C75.7941 13.7512 75.7029 13.5424 75.7029 13.3004C75.7029 13.0552 75.7941 12.8464 75.9764 12.674C76.162 12.4983 76.3841 12.4105 76.6426 12.4105C76.9011 12.4105 77.1215 12.4983 77.3038 12.674C77.4894 12.8464 77.5822 13.0552 77.5822 13.3004C77.5822 13.5424 77.4894 13.7512 77.3038 13.9268C77.1215 14.0992 76.9011 14.1854 76.6426 14.1854ZM82.6694 23.1541C81.917 23.1541 81.2691 22.9934 80.7255 22.6719C80.1853 22.3471 79.7676 21.8913 79.4727 21.3047C79.181 20.7147 79.0352 20.0237 79.0352 19.2315C79.0352 18.4493 79.181 17.7599 79.4727 17.1634C79.7676 16.5668 80.1786 16.1011 80.7056 15.7663C81.2359 15.4316 81.8557 15.2642 82.565 15.2642C82.9959 15.2642 83.4135 15.3355 83.8178 15.478C84.2222 15.6205 84.5851 15.8442 84.9066 16.1491C85.2281 16.4541 85.4817 16.8501 85.6673 17.3374C85.8529 17.8213 85.9457 18.4096 85.9457 19.1023V19.6293H79.8754V18.5156H84.489C84.489 18.1245 84.4094 17.7782 84.2504 17.4766C84.0913 17.1716 83.8675 16.9313 83.5792 16.7557C83.2942 16.58 82.9594 16.4922 82.5749 16.4922C82.1573 16.4922 81.7927 16.5949 81.4812 16.8004C81.1729 17.0026 80.9343 17.2678 80.7653 17.5959C80.5996 17.9207 80.5167 18.2737 80.5167 18.6548V19.5249C80.5167 20.0353 80.6062 20.4695 80.7852 20.8274C80.9674 21.1854 81.221 21.4588 81.5458 21.6477C81.8706 21.8333 82.2501 21.9261 82.6843 21.9261C82.966 21.9261 83.2229 21.8864 83.4549 21.8068C83.6869 21.724 83.8874 21.6013 84.0565 21.4389C84.2255 21.2765 84.3548 21.076 84.4442 20.8374L85.8512 21.0909C85.7385 21.5052 85.5363 21.8681 85.2447 22.1797C84.9563 22.4879 84.5934 22.7282 84.1559 22.9006C83.7217 23.0696 83.2262 23.1541 82.6694 23.1541ZM89.0815 18.4659V23H87.595V15.3636H89.0218V16.6065H89.1163C89.292 16.2022 89.5671 15.8774 89.9416 15.6321C90.3194 15.3868 90.795 15.2642 91.3684 15.2642C91.8888 15.2642 92.3445 15.3736 92.7356 15.5923C93.1267 15.8078 93.43 16.1293 93.6454 16.5568C93.8609 16.9844 93.9686 17.513 93.9686 18.1428V23H92.4821V18.3217C92.4821 17.7682 92.3379 17.3357 92.0495 17.0241C91.7612 16.7093 91.3651 16.5518 90.8613 16.5518C90.5166 16.5518 90.21 16.6264 89.9416 16.7756C89.6764 16.9247 89.466 17.1435 89.3102 17.4318C89.1577 17.7169 89.0815 18.0616 89.0815 18.4659ZM99.1788 23.1541C98.4397 23.1541 97.8033 22.9867 97.2697 22.652C96.7394 22.3139 96.3317 21.8482 96.0467 21.255C95.7617 20.6617 95.6191 19.9822 95.6191 19.2166C95.6191 18.4411 95.765 17.7566 96.0566 17.1634C96.3483 16.5668 96.7593 16.1011 97.2896 15.7663C97.8199 15.4316 98.4447 15.2642 99.1639 15.2642C99.7439 15.2642 100.261 15.3719 100.715 15.5874C101.169 15.7995 101.535 16.0978 101.814 16.4822C102.095 16.8667 102.263 17.3158 102.316 17.8295H100.869C100.79 17.4716 100.607 17.1634 100.322 16.9048C100.041 16.6463 99.6627 16.517 99.1887 16.517C98.7744 16.517 98.4115 16.6264 98.1 16.8452C97.7917 17.0606 97.5514 17.3688 97.3791 17.7699C97.2067 18.1676 97.1206 18.6383 97.1206 19.1818C97.1206 19.7386 97.2051 20.2192 97.3741 20.6236C97.5431 21.0279 97.7818 21.3411 98.09 21.5632C98.4016 21.7853 98.7678 21.8963 99.1887 21.8963C99.4705 21.8963 99.7257 21.8449 99.9544 21.7422C100.186 21.6361 100.38 21.4853 100.536 21.2898C100.695 21.0942 100.806 20.8589 100.869 20.5838H102.316C102.263 21.0777 102.102 21.5185 101.834 21.9062C101.565 22.294 101.206 22.599 100.755 22.821C100.307 23.0431 99.782 23.1541 99.1788 23.1541ZM107.197 23.1541C106.444 23.1541 105.796 22.9934 105.253 22.6719C104.713 22.3471 104.295 21.8913 104 21.3047C103.708 20.7147 103.562 20.0237 103.562 19.2315C103.562 18.4493 103.708 17.7599 104 17.1634C104.295 16.5668 104.706 16.1011 105.233 15.7663C105.763 15.4316 106.383 15.2642 107.092 15.2642C107.523 15.2642 107.941 15.3355 108.345 15.478C108.75 15.6205 109.112 15.8442 109.434 16.1491C109.755 16.4541 110.009 16.8501 110.195 17.3374C110.38 17.8213 110.473 18.4096 110.473 19.1023V19.6293H104.403V18.5156H109.016C109.016 18.1245 108.937 17.7782 108.778 17.4766C108.619 17.1716 108.395 16.9313 108.107 16.7557C107.821 16.58 107.487 16.4922 107.102 16.4922C106.685 16.4922 106.32 16.5949 106.009 16.8004C105.7 17.0026 105.462 17.2678 105.293 17.5959C105.127 17.9207 105.044 18.2737 105.044 18.6548V19.5249C105.044 20.0353 105.134 20.4695 105.312 20.8274C105.495 21.1854 105.748 21.4588 106.073 21.6477C106.398 21.8333 106.777 21.9261 107.212 21.9261C107.493 21.9261 107.75 21.8864 107.982 21.8068C108.214 21.724 108.415 21.6013 108.584 21.4389C108.753 21.2765 108.882 21.076 108.972 20.8374L110.379 21.0909C110.266 21.5052 110.064 21.8681 109.772 22.1797C109.484 22.4879 109.121 22.7282 108.683 22.9006C108.249 23.0696 107.754 23.1541 107.197 23.1541Z" fill="white"/>
</svg>
