<svg xmlns="http://www.w3.org/2000/svg" width="24" height="24" viewBox="0 0 24 24" fill="none">
  <path fill-rule="evenodd" clip-rule="evenodd" d="M3.0002 3.79745C2.42343 3.79745 1.8002 4.35545 1.8002 5.24745V18.7474C1.8002 19.6394 2.42343 20.1974 3.0002 20.1974H21.0002C21.577 20.1974 22.2002 19.6394 22.2002 18.7474V15.8475H17.0003C14.874 15.8475 13.1503 14.1237 13.1503 11.9975C13.1503 9.87116 14.874 8.14745 17.0003 8.14745H22.2002V5.24745C22.2002 4.35545 21.577 3.79745 21.0002 3.79745H3.0002ZM23.8002 8.14745V5.24745C23.8002 3.65417 22.6326 2.19745 21.0002 2.19745H3.0002C1.36782 2.19745 0.200195 3.65417 0.200195 5.24745V18.7474C0.200195 20.3407 1.36782 21.7974 3.0002 21.7974H21.0002C22.6326 21.7974 23.8002 20.3407 23.8002 18.7474V15.8475H23.8503V8.14745H23.8002ZM16.0002 11.9475C16.0002 11.478 16.3808 11.0975 16.8502 11.0975H18.1502C18.6197 11.0975 19.0002 11.478 19.0002 11.9475C19.0002 12.4169 18.6197 12.7975 18.1502 12.7975H16.8502C16.3808 12.7975 16.0002 12.4169 16.0002 11.9475ZM14.8503 11.9975C14.8503 10.81 15.8129 9.84745 17.0003 9.84745H22.1503V14.1475H17.0003C15.8129 14.1475 14.8503 13.1849 14.8503 11.9975Z" fill="white"/>
</svg>