<svg width="208" height="36" viewBox="0 0 208 36" fill="none" xmlns="http://www.w3.org/2000/svg">
<g opacity="0.8">
<path fill-rule="evenodd" clip-rule="evenodd" d="M16.8335 11.0371C16.8335 10.6524 17.144 10.3406 17.5269 10.3406H29.0813C29.4643 10.3406 29.7748 10.6524 29.7748 11.0371V21.0947C29.7748 21.4794 29.4643 21.7912 29.0813 21.7912H17.5269C17.144 21.7912 16.8335 21.4794 16.8335 21.0947V11.0371ZM18.2204 11.7336V20.3982H28.3879V11.7336H18.2204Z" fill="white"/>
<path fill-rule="evenodd" clip-rule="evenodd" d="M28.3879 14.9054C28.3879 14.5208 28.6983 14.2089 29.0813 14.2089H32.1625C32.3464 14.2089 32.5228 14.2823 32.6528 14.4129L34.9637 16.7339C35.0938 16.8645 35.1668 17.0417 35.1668 17.2264V21.0948C35.1668 21.4794 34.8564 21.7912 34.4734 21.7912L29.0813 21.7912C28.6984 21.7912 28.3879 21.4794 28.3879 21.0948V14.9054ZM29.7748 15.6019V20.3983H33.7799V17.5149L31.8753 15.6019H29.7748Z" fill="white"/>
<path fill-rule="evenodd" clip-rule="evenodd" d="M20.9932 21.7912C20.3127 21.7912 19.7609 22.3453 19.7609 23.0289C19.7609 23.7124 20.3127 24.2666 20.9932 24.2666C21.6738 24.2666 22.2255 23.7124 22.2255 23.0289C22.2255 22.3453 21.6738 21.7912 20.9932 21.7912ZM18.374 23.0289C18.374 21.576 19.5467 20.3982 20.9932 20.3982C22.4398 20.3982 23.6124 21.576 23.6124 23.0289C23.6124 24.4817 22.4398 25.6595 20.9932 25.6595C19.5467 25.6595 18.374 24.4817 18.374 23.0289Z" fill="white"/>
<path fill-rule="evenodd" clip-rule="evenodd" d="M31.0071 21.7912C30.3265 21.7912 29.7748 22.3453 29.7748 23.0289C29.7748 23.7124 30.3265 24.2666 31.0071 24.2666C31.6876 24.2666 32.2393 23.7124 32.2393 23.0289C32.2393 22.3453 31.6876 21.7912 31.0071 21.7912ZM28.3879 23.0289C28.3879 21.576 29.5605 20.3982 31.0071 20.3982C32.4536 20.3982 33.6262 21.576 33.6262 23.0289C33.6262 24.4817 32.4536 25.6595 31.0071 25.6595C29.5605 25.6595 28.3879 24.4817 28.3879 23.0289Z" fill="white"/>
</g>
<path opacity="0.8" d="M52.4148 23H49.1186V12.8182H52.5192C53.5168 12.8182 54.3736 13.022 55.0895 13.4297C55.8054 13.834 56.3539 14.4157 56.7351 15.1747C57.1196 15.9304 57.3118 16.8369 57.3118 17.8942C57.3118 18.9548 57.1179 19.8662 56.7301 20.6286C56.3456 21.3909 55.7888 21.9775 55.0597 22.3885C54.3305 22.7962 53.4489 23 52.4148 23ZM50.6548 21.6577H52.3303C53.1058 21.6577 53.7505 21.5118 54.2642 21.2202C54.7779 20.9252 55.1624 20.4993 55.4176 19.9425C55.6728 19.3823 55.8004 18.6996 55.8004 17.8942C55.8004 17.0954 55.6728 16.4176 55.4176 15.8608C55.1657 15.304 54.7895 14.8814 54.2891 14.593C53.7886 14.3047 53.1671 14.1605 52.4247 14.1605H50.6548V21.6577ZM62.394 23.1541C61.6416 23.1541 60.9937 22.9934 60.4501 22.6719C59.9099 22.3471 59.4922 21.8913 59.1973 21.3047C58.9056 20.7147 58.7598 20.0237 58.7598 19.2315C58.7598 18.4493 58.9056 17.7599 59.1973 17.1634C59.4922 16.5668 59.9032 16.1011 60.4302 15.7663C60.9605 15.4316 61.5803 15.2642 62.2896 15.2642C62.7205 15.2642 63.1381 15.3355 63.5424 15.478C63.9468 15.6205 64.3097 15.8442 64.6312 16.1491C64.9527 16.4541 65.2063 16.8501 65.3919 17.3374C65.5775 17.8213 65.6703 18.4096 65.6703 19.1023V19.6293H59.6V18.5156H64.2136C64.2136 18.1245 64.1341 17.7782 63.975 17.4766C63.8159 17.1716 63.5922 16.9313 63.3038 16.7557C63.0188 16.58 62.684 16.4922 62.2995 16.4922C61.8819 16.4922 61.5173 16.5949 61.2058 16.8004C60.8975 17.0026 60.6589 17.2678 60.4899 17.5959C60.3242 17.9207 60.2413 18.2737 60.2413 18.6548V19.5249C60.2413 20.0353 60.3308 20.4695 60.5098 20.8274C60.6921 21.1854 60.9456 21.4588 61.2704 21.6477C61.5952 21.8333 61.9747 21.9261 62.4089 21.9261C62.6906 21.9261 62.9475 21.8864 63.1795 21.8068C63.4115 21.724 63.612 21.6013 63.7811 21.4389C63.9501 21.2765 64.0794 21.076 64.1689 20.8374L65.5758 21.0909C65.4631 21.5052 65.2609 21.8681 64.9693 22.1797C64.6809 22.4879 64.318 22.7282 63.8805 22.9006C63.4463 23.0696 62.9508 23.1541 62.394 23.1541ZM68.8061 12.8182V23H67.3196V12.8182H68.8061ZM70.8059 23V15.3636H72.2924V23H70.8059ZM71.5566 14.1854C71.2981 14.1854 71.0761 14.0992 70.8904 13.9268C70.7082 13.7512 70.617 13.5424 70.617 13.3004C70.617 13.0552 70.7082 12.8464 70.8904 12.674C71.0761 12.4983 71.2981 12.4105 71.5566 12.4105C71.8152 12.4105 72.0356 12.4983 72.2179 12.674C72.4035 12.8464 72.4963 13.0552 72.4963 13.3004C72.4963 13.5424 72.4035 13.7512 72.2179 13.9268C72.0356 14.0992 71.8152 14.1854 71.5566 14.1854ZM80.8249 15.3636L78.0558 23H76.4648L73.6907 15.3636H75.2866L77.2205 21.2401H77.3001L79.229 15.3636H80.8249ZM85.2534 23.1541C84.501 23.1541 83.853 22.9934 83.3095 22.6719C82.7692 22.3471 82.3516 21.8913 82.0566 21.3047C81.765 20.7147 81.6191 20.0237 81.6191 19.2315C81.6191 18.4493 81.765 17.7599 82.0566 17.1634C82.3516 16.5668 82.7626 16.1011 83.2896 15.7663C83.8199 15.4316 84.4397 15.2642 85.149 15.2642C85.5798 15.2642 85.9975 15.3355 86.4018 15.478C86.8062 15.6205 87.1691 15.8442 87.4906 16.1491C87.8121 16.4541 88.0656 16.8501 88.2512 17.3374C88.4368 17.8213 88.5297 18.4096 88.5297 19.1023V19.6293H82.4593V18.5156H87.073C87.073 18.1245 86.9934 17.7782 86.8343 17.4766C86.6752 17.1716 86.4515 16.9313 86.1632 16.7557C85.8781 16.58 85.5434 16.4922 85.1589 16.4922C84.7413 16.4922 84.3767 16.5949 84.0652 16.8004C83.7569 17.0026 83.5183 17.2678 83.3493 17.5959C83.1835 17.9207 83.1007 18.2737 83.1007 18.6548V19.5249C83.1007 20.0353 83.1902 20.4695 83.3691 20.8274C83.5514 21.1854 83.805 21.4588 84.1298 21.6477C84.4546 21.8333 84.8341 21.9261 85.2683 21.9261C85.55 21.9261 85.8069 21.8864 86.0389 21.8068C86.2709 21.724 86.4714 21.6013 86.6404 21.4389C86.8095 21.2765 86.9387 21.076 87.0282 20.8374L88.4352 21.0909C88.3225 21.5052 88.1203 21.8681 87.8287 22.1797C87.5403 22.4879 87.1774 22.7282 86.7399 22.9006C86.3057 23.0696 85.8102 23.1541 85.2534 23.1541ZM90.179 23V15.3636H91.6158V16.5767H91.6953C91.8345 16.1657 92.0798 15.8426 92.4311 15.6072C92.7857 15.3686 93.1868 15.2493 93.6342 15.2493C93.727 15.2493 93.8364 15.2526 93.9624 15.2592C94.0916 15.2659 94.1927 15.2741 94.2656 15.2841V16.706C94.206 16.6894 94.0999 16.6712 93.9474 16.6513C93.795 16.6281 93.6425 16.6165 93.4901 16.6165C93.1387 16.6165 92.8255 16.6911 92.5504 16.8402C92.2786 16.986 92.0632 17.1899 91.9041 17.4517C91.745 17.7102 91.6655 18.0052 91.6655 18.3366V23H90.179ZM96.7241 25.8636C96.502 25.8636 96.2998 25.8454 96.1175 25.8089C95.9353 25.7758 95.7994 25.7393 95.7099 25.6996L96.0678 24.4815C96.3396 24.5545 96.5816 24.5859 96.7937 24.576C97.0058 24.5661 97.1931 24.4865 97.3555 24.3374C97.5212 24.1882 97.667 23.9446 97.793 23.6065L97.9769 23.0994L95.1829 15.3636H96.7738L98.7077 21.2898H98.7873L100.721 15.3636H102.317L99.1701 24.0192C99.0243 24.4169 98.8387 24.7533 98.6133 25.0284C98.3879 25.3068 98.1194 25.5156 97.8079 25.6548C97.4963 25.794 97.1351 25.8636 96.7241 25.8636Z" fill="white"/>
</svg>
