<svg width="208" height="36" viewBox="0 0 208 36" fill="none" xmlns="http://www.w3.org/2000/svg">
<g opacity="0.8" clip-path="url(#clip0_70900_17409)">
<path d="M28.7625 14.1625C28.9091 14.2765 29.0073 14.4417 29.0375 14.625C29.0642 14.8056 29.0194 14.9895 28.9125 15.1375L24.225 21.3875C24.16 21.4774 24.0742 21.5503 23.975 21.5999C23.8739 21.6499 23.7627 21.6756 23.65 21.675C23.4976 21.6734 23.3494 21.6254 23.225 21.5375C23.1498 21.479 23.0861 21.4069 23.0375 21.3249C22.9842 21.2464 22.95 21.1565 22.9375 21.0625C22.925 20.9712 22.925 20.8787 22.9375 20.7875C22.9664 20.6983 23.0086 20.6141 23.0625 20.5375L27.75 14.2875C27.807 14.2125 27.8784 14.1496 27.9599 14.1024C28.0415 14.0552 28.1316 14.0246 28.225 14.0125H28.3375C28.4922 14.0123 28.6422 14.0653 28.7625 14.1625Z" fill="white"/>
<path d="M27.7977 18.9404C27.965 18.8718 28.1442 18.8368 28.325 18.8375C28.5059 18.8368 28.6851 18.8718 28.8524 18.9404C29.0197 19.009 29.1718 19.11 29.3 19.2375C29.4915 19.4301 29.6217 19.6751 29.6742 19.9416C29.7266 20.2082 29.6989 20.4842 29.5946 20.735C29.4903 20.9858 29.3141 21.2001 29.0881 21.3509C28.8622 21.5016 28.5966 21.5821 28.325 21.5821C28.0534 21.5821 27.7879 21.5016 27.5619 21.3509C27.336 21.2001 27.1597 20.9858 27.0554 20.735C26.9511 20.4842 26.9234 20.2082 26.9759 19.9416C27.0283 19.6751 27.1585 19.4301 27.35 19.2375C27.4782 19.11 27.6304 19.009 27.7977 18.9404Z" fill="white"/>
<path d="M24.6126 16.5C24.869 16.2403 25.0129 15.89 25.0129 15.525C25.0129 15.16 24.869 14.8097 24.6126 14.55C24.3529 14.2935 24.0026 14.1497 23.6376 14.1497C23.2726 14.1497 22.9223 14.2935 22.6626 14.55C22.404 14.8086 22.2587 15.1593 22.2587 15.525C22.2587 15.8907 22.404 16.2414 22.6626 16.5C22.9211 16.7586 23.2719 16.9039 23.6376 16.9039C24.0033 16.9039 24.354 16.7586 24.6126 16.5Z" fill="white"/>
<path fill-rule="evenodd" clip-rule="evenodd" d="M34.4 18.2625L35.0875 19.7875C35.2286 20.0927 35.2971 20.4264 35.2875 20.7625C35.29 21.0899 35.2217 21.4139 35.0875 21.7125C34.9612 22.0033 34.7736 22.2634 34.5375 22.475C34.3002 22.6878 34.0244 22.8533 33.725 22.9625L32.1875 23.55C32.0605 23.5947 31.9452 23.6673 31.85 23.7625C31.7548 23.8577 31.6822 23.973 31.6375 24.1L31.05 25.6375C30.9382 25.9414 30.7636 26.2182 30.5375 26.45C30.312 26.687 30.0395 26.8743 29.7375 27C29.4404 27.1319 29.1188 27.2001 28.7937 27.2001C28.4686 27.2001 28.1471 27.1319 27.85 27L26.35 26.3375C26.2306 26.2738 26.0978 26.2395 25.9625 26.2375C25.8282 26.2352 25.6952 26.2651 25.575 26.325L24.075 27.0125C23.7002 27.1845 23.2865 27.2543 22.8759 27.2148C22.4654 27.1753 22.0726 27.0279 21.7375 26.7875C21.3406 26.5131 21.0357 26.1253 20.8625 25.675L20.2875 24.1375C20.2428 24.0105 20.1702 23.8952 20.075 23.8C19.9798 23.7048 19.8645 23.6322 19.7375 23.5875L18.1875 23C17.8878 22.8971 17.613 22.7328 17.3805 22.5176C17.148 22.3023 16.9631 22.0409 16.8375 21.75C16.7032 21.4514 16.635 21.1274 16.6375 20.8C16.6352 20.4767 16.7035 20.1567 16.8375 19.8625L17.525 18.3625C17.6251 18.1138 17.6251 17.8361 17.525 17.5875L16.8375 16.0875C16.7051 15.7878 16.6329 15.465 16.625 15.1375C16.625 14.8116 16.6887 14.4889 16.8125 14.1875C16.9321 13.8853 17.1154 13.6125 17.35 13.3875C17.5837 13.1639 17.86 12.9896 18.1625 12.875L19.7125 12.3C19.8392 12.2488 19.954 12.1722 20.05 12.075C20.1419 11.982 20.2141 11.8715 20.2625 11.75L20.8375 10.2C20.946 9.89156 21.1259 9.61317 21.3625 9.38748C21.588 9.15046 21.8604 8.96313 22.1625 8.83748C22.4608 8.70991 22.7818 8.64415 23.1062 8.64415C23.4307 8.64415 23.7517 8.70991 24.05 8.83748L25.55 9.525C25.7986 9.62511 26.0763 9.62511 26.325 9.525L27.825 8.83748C28.1208 8.70667 28.4392 8.63452 28.7625 8.625C29.0883 8.62499 29.4111 8.68868 29.7125 8.81249C30.0102 8.93865 30.2797 9.12306 30.5051 9.3549C30.7305 9.58675 30.9073 9.86131 31.025 10.1625L31.6125 11.7125C31.6608 11.834 31.7331 11.9445 31.825 12.0375C31.9209 12.1347 32.0358 12.2113 32.1625 12.2625L33.7 12.8375C34.0003 12.9388 34.2769 13.1004 34.5125 13.3125C34.7489 13.5287 34.9364 13.7929 35.0625 14.0875C35.2028 14.3846 35.2755 14.709 35.2755 15.0375C35.2755 15.366 35.2028 15.6904 35.0625 15.9875L34.4 17.4875C34.3387 17.6073 34.3086 17.7405 34.3125 17.875C34.3116 18.0092 34.3415 18.1417 34.4 18.2625ZM33.7125 20.3125L33.1 18.8625C32.9775 18.5614 32.922 18.2372 32.9375 17.9125C32.9467 17.5743 33.0276 17.242 33.175 16.9375L33.8625 15.4375C33.9503 15.1952 33.9503 14.9298 33.8625 14.6875C33.7584 14.4493 33.5656 14.261 33.325 14.1625L31.775 13.5875C31.4545 13.4752 31.1638 13.2913 30.925 13.05C30.6862 12.809 30.5028 12.519 30.3875 12.2L29.8 10.65C29.761 10.5269 29.6923 10.4153 29.6 10.325C29.5115 10.2334 29.4051 10.1611 29.2875 10.1125C29.1719 10.0588 29.0461 10.031 28.9187 10.031C28.7914 10.031 28.6655 10.0588 28.55 10.1125L27.05 10.8C26.7396 10.9401 26.403 11.0125 26.0625 11.0125C25.722 11.0125 25.3853 10.9401 25.075 10.8L23.575 10.1125C23.452 10.0623 23.3203 10.0368 23.1875 10.0375C23.068 10.0125 22.9445 10.0125 22.825 10.0375C22.5868 10.1416 22.3985 10.3344 22.3 10.575L21.725 12.125C21.6031 12.423 21.4248 12.6946 21.2 12.925C20.9611 13.1663 20.6704 13.3501 20.35 13.4625L18.8 14.0375C18.6669 14.0791 18.5436 14.1471 18.4375 14.2375C18.3402 14.3361 18.2599 14.4501 18.2 14.575C18.1121 14.8173 18.1121 15.0827 18.2 15.325L18.8875 16.825C19.0276 17.1354 19.1001 17.4719 19.1001 17.8125C19.1001 18.153 19.0276 18.4896 18.8875 18.8L18.2 20.3C18.1528 20.4158 18.1233 20.5379 18.1125 20.6625C18.1121 20.7912 18.1377 20.9188 18.1875 21.0375C18.2391 21.1535 18.311 21.2594 18.4 21.35C18.4957 21.4353 18.6057 21.503 18.725 21.55L20.275 22.1375C20.5947 22.2514 20.8851 22.4349 21.125 22.6749C21.365 22.9149 21.5486 23.2053 21.6625 23.525L22.2375 25.075C22.3402 25.3128 22.5272 25.5042 22.7625 25.6125C22.8792 25.6524 23.0016 25.6735 23.125 25.675C23.2578 25.6756 23.3895 25.6502 23.5125 25.6L25.0125 24.9125C25.3228 24.7724 25.6595 24.6999 26 24.6999C26.3405 24.6999 26.6771 24.7724 26.9875 24.9125L28.4875 25.6C28.7298 25.6878 28.9952 25.6878 29.2375 25.6C29.4734 25.4903 29.6572 25.293 29.75 25.05L30.3375 23.5125C30.4498 23.192 30.6336 22.9014 30.875 22.6625C31.1106 22.4171 31.4023 22.2327 31.725 22.125L33.1875 21.5625C33.3068 21.5155 33.4168 21.4478 33.5125 21.3625C33.6014 21.2719 33.6734 21.166 33.725 21.05C33.7748 20.9313 33.8003 20.8037 33.8 20.675C33.7891 20.5505 33.7596 20.4282 33.7125 20.3125Z" fill="white"/>
</g>
<path opacity="0.8" d="M52.4148 23H49.1186V12.8182H52.5192C53.5168 12.8182 54.3736 13.022 55.0895 13.4297C55.8054 13.834 56.3539 14.4157 56.7351 15.1747C57.1196 15.9304 57.3118 16.8369 57.3118 17.8942C57.3118 18.9548 57.1179 19.8662 56.7301 20.6286C56.3456 21.3909 55.7888 21.9775 55.0597 22.3885C54.3305 22.7962 53.4489 23 52.4148 23ZM50.6548 21.6577H52.3303C53.1058 21.6577 53.7505 21.5118 54.2642 21.2202C54.7779 20.9252 55.1624 20.4993 55.4176 19.9425C55.6728 19.3823 55.8004 18.6996 55.8004 17.8942C55.8004 17.0954 55.6728 16.4176 55.4176 15.8608C55.1657 15.304 54.7895 14.8814 54.2891 14.593C53.7886 14.3047 53.1671 14.1605 52.4247 14.1605H50.6548V21.6577ZM59.1028 23V15.3636H60.5893V23H59.1028ZM59.8535 14.1854C59.595 14.1854 59.3729 14.0992 59.1873 13.9268C59.005 13.7512 58.9139 13.5424 58.9139 13.3004C58.9139 13.0552 59.005 12.8464 59.1873 12.674C59.3729 12.4983 59.595 12.4105 59.8535 12.4105C60.112 12.4105 60.3324 12.4983 60.5147 12.674C60.7003 12.8464 60.7931 13.0552 60.7931 13.3004C60.7931 13.5424 60.7003 13.7512 60.5147 13.9268C60.3324 14.0992 60.112 14.1854 59.8535 14.1854ZM68.3114 17.228L66.9641 17.4666C66.9078 17.2943 66.8183 17.1302 66.6957 16.9744C66.5763 16.8187 66.4139 16.6911 66.2085 16.5916C66.003 16.4922 65.7461 16.4425 65.4379 16.4425C65.0169 16.4425 64.6656 16.5369 64.3839 16.7259C64.1022 16.9115 63.9613 17.1518 63.9613 17.4467C63.9613 17.7019 64.0558 17.9074 64.2447 18.0632C64.4336 18.219 64.7385 18.3466 65.1594 18.446L66.3725 18.7244C67.0752 18.8868 67.5988 19.1371 67.9435 19.4751C68.2882 19.8132 68.4606 20.2524 68.4606 20.7926C68.4606 21.25 68.328 21.6577 68.0629 22.0156C67.801 22.3703 67.4348 22.6487 66.9641 22.8509C66.4968 23.053 65.9549 23.1541 65.3384 23.1541C64.4833 23.1541 63.7856 22.9718 63.2454 22.6072C62.7051 22.2393 62.3737 21.7173 62.2511 21.0412L63.6879 20.8224C63.7773 21.197 63.9613 21.4804 64.2397 21.6726C64.5181 21.8615 64.881 21.956 65.3285 21.956C65.8157 21.956 66.2051 21.8549 66.4968 21.6527C66.7885 21.4472 66.9343 21.197 66.9343 20.902C66.9343 20.6634 66.8448 20.4628 66.6658 20.3004C66.4902 20.138 66.2201 20.0154 65.8555 19.9325L64.5629 19.6491C63.8503 19.4867 63.3233 19.2282 62.9819 18.8736C62.6438 18.5189 62.4748 18.0698 62.4748 17.5263C62.4748 17.0755 62.6007 16.6811 62.8526 16.343C63.1045 16.005 63.4525 15.7415 63.8967 15.5526C64.3408 15.3603 64.8496 15.2642 65.4229 15.2642C66.2482 15.2642 66.8978 15.4432 67.3718 15.8011C67.8458 16.1558 68.159 16.6314 68.3114 17.228ZM73.3116 23.1541C72.5725 23.1541 71.9361 22.9867 71.4025 22.652C70.8722 22.3139 70.4645 21.8482 70.1795 21.255C69.8945 20.6617 69.752 19.9822 69.752 19.2166C69.752 18.4411 69.8978 17.7566 70.1895 17.1634C70.4811 16.5668 70.8921 16.1011 71.4224 15.7663C71.9527 15.4316 72.5775 15.2642 73.2967 15.2642C73.8767 15.2642 74.3938 15.3719 74.8478 15.5874C75.3019 15.7995 75.6681 16.0978 75.9466 16.4822C76.2283 16.8667 76.3957 17.3158 76.4487 17.8295H75.002C74.9224 17.4716 74.7401 17.1634 74.4551 16.9048C74.1734 16.6463 73.7955 16.517 73.3216 16.517C72.9073 16.517 72.5443 16.6264 72.2328 16.8452C71.9245 17.0606 71.6842 17.3688 71.5119 17.7699C71.3395 18.1676 71.2534 18.6383 71.2534 19.1818C71.2534 19.7386 71.3379 20.2192 71.5069 20.6236C71.676 21.0279 71.9146 21.3411 72.2228 21.5632C72.5344 21.7853 72.9006 21.8963 73.3216 21.8963C73.6033 21.8963 73.8585 21.8449 74.0872 21.7422C74.3192 21.6361 74.5131 21.4853 74.6689 21.2898C74.8279 21.0942 74.939 20.8589 75.002 20.5838H76.4487C76.3957 21.0777 76.2349 21.5185 75.9664 21.9062C75.698 22.294 75.3384 22.599 74.8876 22.821C74.4402 23.0431 73.9148 23.1541 73.3116 23.1541ZM81.255 23.1541C80.5391 23.1541 79.9143 22.9901 79.3807 22.6619C78.8471 22.3338 78.4328 21.8748 78.1378 21.2848C77.8428 20.6948 77.6953 20.0054 77.6953 19.2166C77.6953 18.4245 77.8428 17.7318 78.1378 17.1385C78.4328 16.5452 78.8471 16.0845 79.3807 15.7564C79.9143 15.4283 80.5391 15.2642 81.255 15.2642C81.9709 15.2642 82.5956 15.4283 83.1293 15.7564C83.6629 16.0845 84.0772 16.5452 84.3722 17.1385C84.6671 17.7318 84.8146 18.4245 84.8146 19.2166C84.8146 20.0054 84.6671 20.6948 84.3722 21.2848C84.0772 21.8748 83.6629 22.3338 83.1293 22.6619C82.5956 22.9901 81.9709 23.1541 81.255 23.1541ZM81.2599 21.9062C81.724 21.9062 82.1084 21.7836 82.4134 21.5384C82.7183 21.2931 82.9437 20.9666 83.0895 20.5589C83.2386 20.1513 83.3132 19.7022 83.3132 19.2116C83.3132 18.7244 83.2386 18.277 83.0895 17.8693C82.9437 17.4583 82.7183 17.1286 82.4134 16.88C82.1084 16.6314 81.724 16.5071 81.2599 16.5071C80.7926 16.5071 80.4048 16.6314 80.0966 16.88C79.7917 17.1286 79.5646 17.4583 79.4155 17.8693C79.2696 18.277 79.1967 18.7244 79.1967 19.2116C79.1967 19.7022 79.2696 20.1513 79.4155 20.5589C79.5646 20.9666 79.7917 21.2931 80.0966 21.5384C80.4048 21.7836 80.7926 21.9062 81.2599 21.9062ZM91.3113 19.8331V15.3636H92.8027V23H91.3411V21.6776H91.2615C91.0859 22.0852 90.8042 22.425 90.4164 22.6967C90.0319 22.9652 89.553 23.0994 88.9796 23.0994C88.4891 23.0994 88.0549 22.9917 87.677 22.7763C87.3025 22.5575 87.0075 22.2344 86.7921 21.8068C86.58 21.3793 86.4739 20.8506 86.4739 20.2209V15.3636H87.9604V20.0419C87.9604 20.5623 88.1046 20.9766 88.3929 21.2848C88.6813 21.593 89.0558 21.7472 89.5165 21.7472C89.7949 21.7472 90.0717 21.6776 90.3468 21.5384C90.6252 21.3991 90.8555 21.1887 91.0378 20.907C91.2234 20.6252 91.3146 20.2673 91.3113 19.8331ZM96.2866 18.4659V23H94.8001V15.3636H96.2269V16.6065H96.3214C96.497 16.2022 96.7721 15.8774 97.1467 15.6321C97.5245 15.3868 98.0001 15.2642 98.5735 15.2642C99.0939 15.2642 99.5496 15.3736 99.9407 15.5923C100.332 15.8078 100.635 16.1293 100.85 16.5568C101.066 16.9844 101.174 17.513 101.174 18.1428V23H99.6871V18.3217C99.6871 17.7682 99.543 17.3357 99.2546 17.0241C98.9663 16.7093 98.5702 16.5518 98.0664 16.5518C97.7217 16.5518 97.4151 16.6264 97.1467 16.7756C96.8815 16.9247 96.671 17.1435 96.5153 17.4318C96.3628 17.7169 96.2866 18.0616 96.2866 18.4659ZM106.732 15.3636V16.5568H102.561V15.3636H106.732ZM103.679 13.5341H105.166V20.7578C105.166 21.0462 105.209 21.2633 105.295 21.4091C105.381 21.5516 105.492 21.6494 105.628 21.7024C105.767 21.7521 105.918 21.777 106.081 21.777C106.2 21.777 106.304 21.7687 106.394 21.7521C106.483 21.7356 106.553 21.7223 106.603 21.7124L106.871 22.9403C106.785 22.9735 106.662 23.0066 106.503 23.0398C106.344 23.0762 106.145 23.0961 105.907 23.0994C105.516 23.1061 105.151 23.0365 104.813 22.8906C104.475 22.7448 104.201 22.5194 103.993 22.2145C103.784 21.9096 103.679 21.5268 103.679 21.0661V13.5341ZM113.975 17.228L112.628 17.4666C112.572 17.2943 112.482 17.1302 112.36 16.9744C112.24 16.8187 112.078 16.6911 111.873 16.5916C111.667 16.4922 111.41 16.4425 111.102 16.4425C110.681 16.4425 110.33 16.5369 110.048 16.7259C109.766 16.9115 109.625 17.1518 109.625 17.4467C109.625 17.7019 109.72 17.9074 109.909 18.0632C110.098 18.219 110.403 18.3466 110.824 18.446L112.037 18.7244C112.739 18.8868 113.263 19.1371 113.608 19.4751C113.952 19.8132 114.125 20.2524 114.125 20.7926C114.125 21.25 113.992 21.6577 113.727 22.0156C113.465 22.3703 113.099 22.6487 112.628 22.8509C112.161 23.053 111.619 23.1541 111.002 23.1541C110.147 23.1541 109.45 22.9718 108.909 22.6072C108.369 22.2393 108.038 21.7173 107.915 21.0412L109.352 20.8224C109.441 21.197 109.625 21.4804 109.904 21.6726C110.182 21.8615 110.545 21.956 110.993 21.956C111.48 21.956 111.869 21.8549 112.161 21.6527C112.453 21.4472 112.598 21.197 112.598 20.902C112.598 20.6634 112.509 20.4628 112.33 20.3004C112.154 20.138 111.884 20.0154 111.52 19.9325L110.227 19.6491C109.514 19.4867 108.987 19.2282 108.646 18.8736C108.308 18.5189 108.139 18.0698 108.139 17.5263C108.139 17.0755 108.265 16.6811 108.517 16.343C108.769 16.005 109.117 15.7415 109.561 15.5526C110.005 15.3603 110.514 15.2642 111.087 15.2642C111.912 15.2642 112.562 15.4432 113.036 15.8011C113.51 16.1558 113.823 16.6314 113.975 17.228Z" fill="white"/>
<defs>
<clipPath id="clip0_70900_17409">
<rect width="20" height="20" fill="white" transform="translate(16 8)"/>
</clipPath>
</defs>
</svg>
