<svg width="208" height="36" viewBox="0 0 208 36" fill="none" xmlns="http://www.w3.org/2000/svg">
<g opacity="0.8">
<path d="M32.9398 26.75H29.0675C28.7165 26.75 28.3797 26.6111 28.1307 26.3636C27.8816 26.1162 27.7407 25.7802 27.7385 25.4292V20.1622H24.2272V25.4292C24.2251 25.7802 24.0841 26.1162 23.8351 26.3636C23.5861 26.6111 23.2493 26.75 22.8982 26.75H19.0259C18.6212 26.75 18.2331 26.5892 17.9469 26.3031C17.6608 26.0169 17.5 25.6288 17.5 25.2241V15.9947C17.5003 15.7571 17.5561 15.5228 17.6629 15.3106C17.7698 15.0984 17.9247 14.9141 18.1153 14.7723L25.1543 9.55457C25.4182 9.35686 25.7392 9.25 26.069 9.25C26.3988 9.25 26.7198 9.35686 26.9837 9.55457L33.8832 14.7641C34.0665 14.9118 34.2136 15.0995 34.3131 15.3128C34.4126 15.5261 34.462 15.7593 34.4575 15.9947V25.2241C34.4586 25.4241 34.4201 25.6223 34.3443 25.8074C34.2686 25.9925 34.1569 26.1608 34.0159 26.3026C33.8749 26.4444 33.7072 26.5569 33.5225 26.6337C33.3378 26.7105 33.1398 26.75 32.9398 26.75ZM29.1496 25.3553H32.9562C32.9896 25.3532 33.0209 25.3385 33.0438 25.3141C33.0666 25.2897 33.0793 25.2575 33.0793 25.2241V15.9947C33.08 15.9754 33.0758 15.9563 33.0672 15.9391C33.0586 15.9219 33.0458 15.9072 33.03 15.8962L26.1141 10.6867C26.0911 10.6712 26.064 10.6629 26.0362 10.6629C26.0084 10.6629 25.9813 10.6712 25.9582 10.6867L18.9275 15.9044C18.9105 15.9167 18.8965 15.9327 18.8866 15.9512C18.8766 15.9696 18.871 15.9901 18.8701 16.0111V25.2241C18.8701 25.2589 18.8839 25.2923 18.9085 25.3169C18.9331 25.3415 18.9665 25.3553 19.0013 25.3553H22.8079V20.0228C22.8101 19.6905 22.943 19.3725 23.178 19.1376C23.4129 18.9027 23.7309 18.7697 24.0631 18.7676H27.878C28.0439 18.7665 28.2084 18.7981 28.3621 18.8606C28.5158 18.9231 28.6557 19.0153 28.7737 19.1318C28.8918 19.2484 28.9858 19.387 29.0503 19.5399C29.1148 19.6928 29.1485 19.8569 29.1496 20.0228V25.3553Z" fill="white"/>
</g>
<path opacity="0.8" d="M49.1186 23V12.8182H50.6548V17.2429H55.7308V12.8182H57.272V23H55.7308V18.5604H50.6548V23H49.1186ZM62.6065 23.1541C61.8906 23.1541 61.2659 22.9901 60.7322 22.6619C60.1986 22.3338 59.7843 21.8748 59.4893 21.2848C59.1944 20.6948 59.0469 20.0054 59.0469 19.2166C59.0469 18.4245 59.1944 17.7318 59.4893 17.1385C59.7843 16.5452 60.1986 16.0845 60.7322 15.7564C61.2659 15.4283 61.8906 15.2642 62.6065 15.2642C63.3224 15.2642 63.9472 15.4283 64.4808 15.7564C65.0144 16.0845 65.4287 16.5452 65.7237 17.1385C66.0187 17.7318 66.1662 18.4245 66.1662 19.2166C66.1662 20.0054 66.0187 20.6948 65.7237 21.2848C65.4287 21.8748 65.0144 22.3338 64.4808 22.6619C63.9472 22.9901 63.3224 23.1541 62.6065 23.1541ZM62.6115 21.9062C63.0755 21.9062 63.46 21.7836 63.7649 21.5384C64.0698 21.2931 64.2952 20.9666 64.4411 20.5589C64.5902 20.1513 64.6648 19.7022 64.6648 19.2116C64.6648 18.7244 64.5902 18.277 64.4411 17.8693C64.2952 17.4583 64.0698 17.1286 63.7649 16.88C63.46 16.6314 63.0755 16.5071 62.6115 16.5071C62.1442 16.5071 61.7564 16.6314 61.4482 16.88C61.1432 17.1286 60.9162 17.4583 60.767 17.8693C60.6212 18.277 60.5483 18.7244 60.5483 19.2116C60.5483 19.7022 60.6212 20.1513 60.767 20.5589C60.9162 20.9666 61.1432 21.2931 61.4482 21.5384C61.7564 21.7836 62.1442 21.9062 62.6115 21.9062ZM67.8255 23V15.3636H69.2523V16.6065H69.3468C69.5059 16.1856 69.766 15.8575 70.1273 15.6222C70.4886 15.3835 70.9211 15.2642 71.4249 15.2642C71.9353 15.2642 72.3629 15.3835 72.7076 15.6222C73.0556 15.8608 73.3124 16.1889 73.4782 16.6065H73.5577C73.74 16.1989 74.03 15.8741 74.4277 15.6321C74.8255 15.3868 75.2994 15.2642 75.8496 15.2642C76.5423 15.2642 77.1074 15.4813 77.5449 15.9155C77.9857 16.3497 78.2061 17.0043 78.2061 17.8793V23H76.7196V18.0185C76.7196 17.5014 76.5788 17.1269 76.2971 16.8949C76.0153 16.6629 75.6789 16.5469 75.2878 16.5469C74.8039 16.5469 74.4277 16.696 74.1593 16.9943C73.8908 17.2893 73.7566 17.6688 73.7566 18.1328V23H72.275V17.924C72.275 17.5097 72.1458 17.1766 71.8873 16.9247C71.6287 16.6728 71.2923 16.5469 70.878 16.5469C70.5963 16.5469 70.3361 16.6214 70.0975 16.7706C69.8622 16.9164 69.6716 17.1203 69.5257 17.3821C69.3832 17.6439 69.312 17.9472 69.312 18.2919V23H67.8255ZM83.4897 23.1541C82.7373 23.1541 82.0894 22.9934 81.5458 22.6719C81.0056 22.3471 80.5879 21.8913 80.293 21.3047C80.0013 20.7147 79.8555 20.0237 79.8555 19.2315C79.8555 18.4493 80.0013 17.7599 80.293 17.1634C80.5879 16.5668 80.9989 16.1011 81.5259 15.7663C82.0562 15.4316 82.676 15.2642 83.3853 15.2642C83.8162 15.2642 84.2338 15.3355 84.6381 15.478C85.0425 15.6205 85.4054 15.8442 85.7269 16.1491C86.0484 16.4541 86.302 16.8501 86.4876 17.3374C86.6732 17.8213 86.766 18.4096 86.766 19.1023V19.6293H80.6957V18.5156H85.3093C85.3093 18.1245 85.2298 17.7782 85.0707 17.4766C84.9116 17.1716 84.6879 16.9313 84.3995 16.7557C84.1145 16.58 83.7797 16.4922 83.3952 16.4922C82.9776 16.4922 82.613 16.5949 82.3015 16.8004C81.9933 17.0026 81.7546 17.2678 81.5856 17.5959C81.4199 17.9207 81.337 18.2737 81.337 18.6548V19.5249C81.337 20.0353 81.4265 20.4695 81.6055 20.8274C81.7878 21.1854 82.0413 21.4588 82.3661 21.6477C82.6909 21.8333 83.0704 21.9261 83.5046 21.9261C83.7863 21.9261 84.0432 21.8864 84.2752 21.8068C84.5072 21.724 84.7077 21.6013 84.8768 21.4389C85.0458 21.2765 85.1751 21.076 85.2646 20.8374L86.6715 21.0909C86.5588 21.5052 86.3567 21.8681 86.065 22.1797C85.7766 22.4879 85.4137 22.7282 84.9762 22.9006C84.542 23.0696 84.0465 23.1541 83.4897 23.1541Z" fill="white"/>
</svg>
