<svg width="208" height="36" viewBox="0 0 208 36" fill="none" xmlns="http://www.w3.org/2000/svg">
<g opacity="0.8">
<path fill-rule="evenodd" clip-rule="evenodd" d="M28.1074 10.2908C29.0654 9.76834 30.2333 10.4617 30.2333 11.5528V24.4471C30.2333 25.5383 29.0653 26.2316 28.1074 25.7091L20.047 21.3125H18.375C17.2359 21.3125 16.3125 20.3891 16.3125 19.25V16.75C16.3125 15.6109 17.2359 14.6875 18.375 14.6875H20.0469L28.1074 10.2908ZM28.6083 11.8687L21.0666 15.9823V20.0176L28.6083 24.1313V11.8687ZM17.9375 16.75C17.9375 16.5084 18.1334 16.3125 18.375 16.3125H19.4375V19.6875H18.375C18.1334 19.6875 17.9375 19.4916 17.9375 19.25V16.75Z" fill="white"/>
<path d="M34.6387 13.3257C34.919 13.6761 34.8622 14.1874 34.5118 14.4678L32.4284 16.1344C32.078 16.4147 31.5667 16.3579 31.2864 16.0075C31.0061 15.6571 31.0629 15.1458 31.4133 14.8655L33.4966 13.1988C33.847 12.9185 34.3583 12.9753 34.6387 13.3257Z" fill="white"/>
<path d="M31.5041 18.0208C31.5041 17.5721 31.8679 17.2083 32.3166 17.2083H34.8583C35.307 17.2083 35.6708 17.5721 35.6708 18.0208C35.6708 18.4695 35.307 18.8333 34.8583 18.8333H32.3166C31.8679 18.8333 31.5041 18.4695 31.5041 18.0208Z" fill="white"/>
<path d="M32.4284 20.2822C32.078 20.0019 31.5667 20.0587 31.2864 20.4091C31.0061 20.7595 31.0629 21.2708 31.4133 21.5511L33.4966 23.2178C33.847 23.4981 34.3583 23.4413 34.6387 23.0909C34.919 22.7405 34.8622 22.2292 34.5118 21.9489L32.4284 20.2822Z" fill="white"/>
</g>
<path opacity="0.8" d="M49.1186 12.8182H50.983L54.2244 20.733H54.3438L57.5852 12.8182H59.4496V23H57.9879V15.6321H57.8935L54.8906 22.9851H53.6776L50.6747 15.6271H50.5803V23H49.1186V12.8182ZM63.786 23.169C63.3021 23.169 62.8646 23.0795 62.4735 22.9006C62.0824 22.7183 61.7725 22.4548 61.5439 22.1101C61.3185 21.7654 61.2058 21.3428 61.2058 20.8423C61.2058 20.4115 61.2886 20.0568 61.4544 19.7784C61.6201 19.5 61.8438 19.2796 62.1255 19.1172C62.4073 18.9548 62.7221 18.8321 63.0701 18.7493C63.4181 18.6664 63.7728 18.6035 64.1341 18.5604C64.5914 18.5073 64.9627 18.4643 65.2477 18.4311C65.5327 18.3946 65.7399 18.3366 65.8691 18.2571C65.9984 18.1776 66.063 18.0483 66.063 17.8693V17.8345C66.063 17.4003 65.9404 17.0639 65.6951 16.8253C65.4532 16.5866 65.0919 16.4673 64.6113 16.4673C64.1109 16.4673 63.7164 16.5784 63.4281 16.8004C63.1431 17.0192 62.9458 17.2628 62.8365 17.5312L61.4395 17.2131C61.6052 16.7491 61.8471 16.3745 62.1653 16.0895C62.4868 15.8011 62.8564 15.5923 63.274 15.4631C63.6916 15.3305 64.1307 15.2642 64.5914 15.2642C64.8964 15.2642 65.2195 15.3007 65.5609 15.3736C65.9056 15.4432 66.2271 15.5724 66.5254 15.7614C66.827 15.9503 67.0739 16.2204 67.2662 16.5717C67.4584 16.9197 67.5545 17.3722 67.5545 17.929V23H66.1028V21.956H66.0431C65.947 22.1482 65.8029 22.3371 65.6106 22.5227C65.4184 22.7083 65.1715 22.8625 64.8699 22.9851C64.5682 23.1077 64.207 23.169 63.786 23.169ZM64.1092 21.9759C64.5202 21.9759 64.8715 21.8946 65.1632 21.7322C65.4582 21.5698 65.6819 21.3577 65.8343 21.0959C65.9901 20.8307 66.068 20.5473 66.068 20.2457V19.2614C66.015 19.3144 65.9122 19.3641 65.7598 19.4105C65.6106 19.4536 65.4399 19.4917 65.2477 19.5249C65.0555 19.5547 64.8682 19.5829 64.6859 19.6094C64.5036 19.6326 64.3511 19.6525 64.2285 19.669C63.9402 19.7055 63.6767 19.7668 63.438 19.853C63.2027 19.9392 63.0138 20.0634 62.8713 20.2259C62.7321 20.3849 62.6625 20.5971 62.6625 20.8622C62.6625 21.2301 62.7984 21.5085 63.0701 21.6974C63.3419 21.883 63.6883 21.9759 64.1092 21.9759ZM69.5344 23V15.3636H70.9712V16.5767H71.0508C71.19 16.1657 71.4353 15.8426 71.7866 15.6072C72.1412 15.3686 72.5423 15.2493 72.9897 15.2493C73.0825 15.2493 73.1919 15.2526 73.3178 15.2592C73.4471 15.2659 73.5482 15.2741 73.6211 15.2841V16.706C73.5614 16.6894 73.4554 16.6712 73.3029 16.6513C73.1504 16.6281 72.998 16.6165 72.8455 16.6165C72.4942 16.6165 72.181 16.6911 71.9059 16.8402C71.6341 16.986 71.4187 17.1899 71.2596 17.4517C71.1005 17.7102 71.021 18.0052 71.021 18.3366V23H69.5344ZM76.2747 20.4098L76.2647 18.5952H76.5233L79.5659 15.3636H81.3457L77.8755 19.0426H77.6419L76.2747 20.4098ZM74.9075 23V12.8182H76.394V23H74.9075ZM79.7299 23L76.9956 19.3707L78.0197 18.3317L81.5545 23H79.7299ZM85.6772 23.1541C84.9248 23.1541 84.2769 22.9934 83.7333 22.6719C83.1931 22.3471 82.7754 21.8913 82.4805 21.3047C82.1888 20.7147 82.043 20.0237 82.043 19.2315C82.043 18.4493 82.1888 17.7599 82.4805 17.1634C82.7754 16.5668 83.1864 16.1011 83.7134 15.7663C84.2437 15.4316 84.8635 15.2642 85.5728 15.2642C86.0037 15.2642 86.4213 15.3355 86.8256 15.478C87.23 15.6205 87.5929 15.8442 87.9144 16.1491C88.2359 16.4541 88.4895 16.8501 88.6751 17.3374C88.8607 17.8213 88.9535 18.4096 88.9535 19.1023V19.6293H82.8832V18.5156H87.4968C87.4968 18.1245 87.4173 17.7782 87.2582 17.4766C87.0991 17.1716 86.8754 16.9313 86.587 16.7557C86.302 16.58 85.9672 16.4922 85.5827 16.4922C85.1651 16.4922 84.8005 16.5949 84.489 16.8004C84.1808 17.0026 83.9421 17.2678 83.7731 17.5959C83.6074 17.9207 83.5245 18.2737 83.5245 18.6548V19.5249C83.5245 20.0353 83.614 20.4695 83.793 20.8274C83.9753 21.1854 84.2288 21.4588 84.5536 21.6477C84.8784 21.8333 85.2579 21.9261 85.6921 21.9261C85.9738 21.9261 86.2307 21.8864 86.4627 21.8068C86.6947 21.724 86.8952 21.6013 87.0643 21.4389C87.2333 21.2765 87.3626 21.076 87.4521 20.8374L88.859 21.0909C88.7463 21.5052 88.5442 21.8681 88.2525 22.1797C87.9641 22.4879 87.6012 22.7282 87.1637 22.9006C86.7295 23.0696 86.234 23.1541 85.6772 23.1541ZM94.1674 15.3636V16.5568H89.9963V15.3636H94.1674ZM91.1149 13.5341H92.6014V20.7578C92.6014 21.0462 92.6445 21.2633 92.7306 21.4091C92.8168 21.5516 92.9279 21.6494 93.0637 21.7024C93.2029 21.7521 93.3538 21.777 93.5162 21.777C93.6355 21.777 93.7399 21.7687 93.8294 21.7521C93.9189 21.7356 93.9885 21.7223 94.0382 21.7124L94.3066 22.9403C94.2205 22.9735 94.0978 23.0066 93.9387 23.0398C93.7797 23.0762 93.5808 23.0961 93.3422 23.0994C92.9511 23.1061 92.5865 23.0365 92.2484 22.8906C91.9103 22.7448 91.6369 22.5194 91.4281 22.2145C91.2193 21.9096 91.1149 21.5268 91.1149 21.0661V13.5341ZM95.8118 23V15.3636H97.2983V23H95.8118ZM96.5625 14.1854C96.304 14.1854 96.0819 14.0992 95.8963 13.9268C95.714 13.7512 95.6229 13.5424 95.6229 13.3004C95.6229 13.0552 95.714 12.8464 95.8963 12.674C96.0819 12.4983 96.304 12.4105 96.5625 12.4105C96.821 12.4105 97.0414 12.4983 97.2237 12.674C97.4093 12.8464 97.5021 13.0552 97.5021 13.3004C97.5021 13.5424 97.4093 13.7512 97.2237 13.9268C97.0414 14.0992 96.821 14.1854 96.5625 14.1854ZM100.785 18.4659V23H99.2981V15.3636H100.725V16.6065H100.819C100.995 16.2022 101.27 15.8774 101.645 15.6321C102.023 15.3868 102.498 15.2642 103.072 15.2642C103.592 15.2642 104.048 15.3736 104.439 15.5923C104.83 15.8078 105.133 16.1293 105.349 16.5568C105.564 16.9844 105.672 17.513 105.672 18.1428V23H104.185V18.3217C104.185 17.7682 104.041 17.3357 103.753 17.0241C103.464 16.7093 103.068 16.5518 102.564 16.5518C102.22 16.5518 101.913 16.6264 101.645 16.7756C101.38 16.9247 101.169 17.1435 101.013 17.4318C100.861 17.7169 100.785 18.0616 100.785 18.4659ZM110.867 26.0227C110.26 26.0227 109.738 25.9432 109.301 25.7841C108.867 25.625 108.512 25.4145 108.237 25.1527C107.962 24.8909 107.756 24.6042 107.621 24.2926L108.898 23.7656C108.988 23.9115 109.107 24.0656 109.256 24.228C109.409 24.3937 109.614 24.5346 109.873 24.6506C110.135 24.7666 110.471 24.8246 110.882 24.8246C111.445 24.8246 111.911 24.687 112.279 24.4119C112.647 24.1402 112.831 23.706 112.831 23.1094V21.608H112.736C112.647 21.7704 112.518 21.951 112.349 22.1499C112.183 22.3487 111.954 22.5211 111.662 22.6669C111.371 22.8127 110.991 22.8857 110.524 22.8857C109.921 22.8857 109.377 22.7448 108.893 22.4631C108.413 22.178 108.032 21.7588 107.75 21.2053C107.471 20.6484 107.332 19.964 107.332 19.152C107.332 18.34 107.47 17.6439 107.745 17.0639C108.023 16.4839 108.404 16.0398 108.888 15.7315C109.372 15.42 109.921 15.2642 110.534 15.2642C111.008 15.2642 111.391 15.3438 111.682 15.5028C111.974 15.6586 112.201 15.8409 112.363 16.0497C112.529 16.2585 112.657 16.4425 112.746 16.6016H112.856V15.3636H114.312V23.169C114.312 23.8253 114.16 24.3639 113.855 24.7848C113.55 25.2057 113.137 25.5173 112.617 25.7195C112.1 25.9216 111.517 26.0227 110.867 26.0227ZM110.852 21.6527C111.28 21.6527 111.641 21.5533 111.936 21.3544C112.234 21.1522 112.46 20.8639 112.612 20.4893C112.768 20.1115 112.846 19.6591 112.846 19.1321C112.846 18.6184 112.769 18.166 112.617 17.7749C112.465 17.3838 112.241 17.0788 111.946 16.8601C111.651 16.638 111.286 16.527 110.852 16.527C110.405 16.527 110.032 16.643 109.733 16.875C109.435 17.1037 109.21 17.4152 109.057 17.8097C108.908 18.2041 108.834 18.6449 108.834 19.1321C108.834 19.6326 108.91 20.0717 109.062 20.4496C109.215 20.8274 109.44 21.1224 109.738 21.3345C110.04 21.5466 110.411 21.6527 110.852 21.6527Z" fill="white"/>
</svg>
