<svg width="208" height="36" viewBox="0 0 208 36" fill="none" xmlns="http://www.w3.org/2000/svg">
<g opacity="0.8">
<path fill-rule="evenodd" clip-rule="evenodd" d="M30.2972 9.98737C30.1119 9.19626 29.4057 8.625 28.5804 8.625H23.4199L23.289 8.62991L23.1529 8.64542L23.0191 8.67142C22.2279 8.85675 21.6567 9.56287 21.6567 10.3882V10.6032H20.1945L20.0445 10.6072C18.7032 10.6779 17.6143 11.6915 17.6143 12.9685V25.0098L17.6187 25.1505C17.6982 26.4071 18.8356 27.375 20.1945 27.375H31.8058L31.9558 27.3711C33.2972 27.3003 34.3861 26.2868 34.3861 25.0098V12.9685L34.3816 12.8277C34.3021 11.5711 33.1647 10.6032 31.8058 10.6032H30.3436V10.3882L30.3387 10.2573L30.3232 10.1212L30.2972 9.98737ZM30.3436 11.8934V12.1084C30.3436 12.9337 29.7724 13.6398 28.9813 13.8251L28.8474 13.8511L28.7114 13.8666L28.5804 13.8716H23.4199C22.5946 13.8716 21.8884 13.3003 21.7031 12.5092L21.6771 12.3754L21.6616 12.2393L21.6567 12.1084V11.8934H20.1945C19.509 11.8934 18.9711 12.3357 18.9101 12.8678L18.9044 12.9685V25.0098C18.9044 25.5516 19.402 26.0259 20.0678 26.0798L20.1945 26.0849H31.8058C32.4913 26.0849 33.0292 25.6425 33.0902 25.1105L33.0959 25.0098V12.9685C33.0959 12.4266 32.5983 11.9524 31.9325 11.8985L31.8058 11.8934H30.3436ZM23.6776 9.61411H28.3227C28.7697 9.61411 29.1592 9.90084 29.3005 10.3186L29.3305 10.4257L29.3487 10.5361L29.3548 10.6463L29.3542 11.8671L29.3452 11.9893L29.324 12.1009L29.287 12.219C29.1783 12.5036 28.9484 12.7244 28.6589 12.8251L28.5477 12.8571L28.4314 12.8765L28.3227 12.8825L23.6609 12.8819L23.5387 12.8729L23.4271 12.8517L23.309 12.8147C23.0244 12.7059 22.8036 12.476 22.7029 12.1866L22.6709 12.0753L22.6515 11.959L22.6455 11.8503L22.6461 10.6295L22.6551 10.5073L22.6763 10.3957L22.7133 10.2776C22.8221 9.99293 23.0519 9.77213 23.3414 9.67146L23.4527 9.63945L23.5689 9.62004L23.6776 9.61411Z" fill="white"/>
<path d="M21.4631 18.5959C21.9383 18.5959 22.3236 18.2107 22.3236 17.7355C22.3236 17.2602 21.9383 16.875 21.4631 16.875C20.9879 16.875 20.6026 17.2602 20.6026 17.7355C20.6026 18.2107 20.9879 18.5959 21.4631 18.5959Z" fill="white"/>
<path d="M24.0445 16.9485C23.6125 16.9485 23.2623 17.2987 23.2623 17.7307C23.2623 18.1628 23.6125 18.513 24.0445 18.513H30.6154C31.0474 18.513 31.3976 18.1628 31.3976 17.7307C31.3976 17.2987 31.0474 16.9485 30.6154 16.9485H24.0445Z" fill="white"/>
<path d="M23.2623 22.1522C23.2623 21.7202 23.6125 21.3699 24.0446 21.3699H30.6154C31.0474 21.3699 31.3977 21.7202 31.3977 22.1522C31.3977 22.5842 31.0474 22.9344 30.6154 22.9344H24.0446C23.6125 22.9344 23.2623 22.5842 23.2623 22.1522Z" fill="white"/>
<path d="M21.4631 23.0174C21.9383 23.0174 22.3236 22.6321 22.3236 22.1569C22.3236 21.6817 21.9383 21.2964 21.4631 21.2964C20.9879 21.2964 20.6026 21.6817 20.6026 22.1569C20.6026 22.6321 20.9879 23.0174 21.4631 23.0174Z" fill="white"/>
</g>
<path opacity="0.8" d="M57.9631 17.9091C57.9631 18.9962 57.7642 19.9309 57.3665 20.7131C56.9688 21.492 56.4235 22.0919 55.7308 22.5128C55.0414 22.9304 54.2576 23.1392 53.3793 23.1392C52.4976 23.1392 51.7105 22.9304 51.0178 22.5128C50.3284 22.0919 49.7848 21.4903 49.3871 20.7081C48.9893 19.9259 48.7905 18.9929 48.7905 17.9091C48.7905 16.822 48.9893 15.889 49.3871 15.1101C49.7848 14.3279 50.3284 13.728 51.0178 13.3104C51.7105 12.8894 52.4976 12.679 53.3793 12.679C54.2576 12.679 55.0414 12.8894 55.7308 13.3104C56.4235 13.728 56.9688 14.3279 57.3665 15.1101C57.7642 15.889 57.9631 16.822 57.9631 17.9091ZM56.4418 17.9091C56.4418 17.0805 56.3075 16.3828 56.0391 15.8161C55.7739 15.246 55.4093 14.8151 54.9453 14.5234C54.4846 14.2285 53.9626 14.081 53.3793 14.081C52.7926 14.081 52.2689 14.2285 51.8082 14.5234C51.3475 14.8151 50.983 15.246 50.7145 15.8161C50.4493 16.3828 50.3168 17.0805 50.3168 17.9091C50.3168 18.7377 50.4493 19.437 50.7145 20.0071C50.983 20.5739 51.3475 21.0047 51.8082 21.2997C52.2689 21.5914 52.7926 21.7372 53.3793 21.7372C53.9626 21.7372 54.4846 21.5914 54.9453 21.2997C55.4093 21.0047 55.7739 20.5739 56.0391 20.0071C56.3075 19.437 56.4418 18.7377 56.4418 17.9091ZM59.7591 23V15.3636H61.1958V16.5767H61.2754C61.4146 16.1657 61.6599 15.8426 62.0112 15.6072C62.3658 15.3686 62.7669 15.2493 63.2143 15.2493C63.3071 15.2493 63.4165 15.2526 63.5424 15.2592C63.6717 15.2659 63.7728 15.2741 63.8457 15.2841V16.706C63.786 16.6894 63.68 16.6712 63.5275 16.6513C63.3751 16.6281 63.2226 16.6165 63.0701 16.6165C62.7188 16.6165 62.4056 16.6911 62.1305 16.8402C61.8587 16.986 61.6433 17.1899 61.4842 17.4517C61.3251 17.7102 61.2456 18.0052 61.2456 18.3366V23H59.7591ZM67.7173 23.1491C67.1009 23.1491 66.5507 22.9917 66.0668 22.6768C65.5862 22.3587 65.2083 21.9062 64.9332 21.3196C64.6615 20.7296 64.5256 20.022 64.5256 19.1967C64.5256 18.3714 64.6631 17.6655 64.9382 17.0788C65.2166 16.4922 65.5978 16.0431 66.0817 15.7315C66.5656 15.42 67.1141 15.2642 67.7273 15.2642C68.2012 15.2642 68.5824 15.3438 68.8707 15.5028C69.1624 15.6586 69.3878 15.8409 69.5469 16.0497C69.7093 16.2585 69.8352 16.4425 69.9247 16.6016H70.0142V12.8182H71.5007V23H70.049V21.8118H69.9247C69.8352 21.9742 69.706 22.1598 69.5369 22.3686C69.3712 22.5774 69.1425 22.7597 68.8509 22.9155C68.5592 23.0713 68.1813 23.1491 67.7173 23.1491ZM68.0455 21.8814C68.473 21.8814 68.8343 21.7687 69.1293 21.5433C69.4276 21.3146 69.6529 20.9981 69.8054 20.5938C69.9612 20.1894 70.0391 19.7187 70.0391 19.1818C70.0391 18.6515 69.9628 18.1875 69.8104 17.7898C69.6579 17.392 69.4342 17.0821 69.1392 16.8601C68.8442 16.638 68.4796 16.527 68.0455 16.527C67.598 16.527 67.2251 16.643 66.9268 16.875C66.6286 17.107 66.4032 17.4235 66.2507 17.8246C66.1016 18.2256 66.027 18.678 66.027 19.1818C66.027 19.6922 66.1032 20.1513 66.2557 20.5589C66.4081 20.9666 66.6335 21.2898 66.9318 21.5284C67.2334 21.7637 67.6046 21.8814 68.0455 21.8814ZM76.9135 23.1541C76.1612 23.1541 75.5132 22.9934 74.9696 22.6719C74.4294 22.3471 74.0118 21.8913 73.7168 21.3047C73.4251 20.7147 73.2793 20.0237 73.2793 19.2315C73.2793 18.4493 73.4251 17.7599 73.7168 17.1634C74.0118 16.5668 74.4228 16.1011 74.9498 15.7663C75.4801 15.4316 76.0998 15.2642 76.8091 15.2642C77.24 15.2642 77.6576 15.3355 78.062 15.478C78.4663 15.6205 78.8292 15.8442 79.1507 16.1491C79.4722 16.4541 79.7258 16.8501 79.9114 17.3374C80.097 17.8213 80.1898 18.4096 80.1898 19.1023V19.6293H74.1195V18.5156H78.7331C78.7331 18.1245 78.6536 17.7782 78.4945 17.4766C78.3354 17.1716 78.1117 16.9313 77.8233 16.7557C77.5383 16.58 77.2035 16.4922 76.8191 16.4922C76.4015 16.4922 76.0369 16.5949 75.7253 16.8004C75.4171 17.0026 75.1784 17.2678 75.0094 17.5959C74.8437 17.9207 74.7608 18.2737 74.7608 18.6548V19.5249C74.7608 20.0353 74.8503 20.4695 75.0293 20.8274C75.2116 21.1854 75.4651 21.4588 75.79 21.6477C76.1148 21.8333 76.4943 21.9261 76.9284 21.9261C77.2102 21.9261 77.467 21.8864 77.699 21.8068C77.931 21.724 78.1316 21.6013 78.3006 21.4389C78.4696 21.2765 78.5989 21.076 78.6884 20.8374L80.0953 21.0909C79.9827 21.5052 79.7805 21.8681 79.4888 22.1797C79.2005 22.4879 78.8375 22.7282 78.4 22.9006C77.9658 23.0696 77.4703 23.1541 76.9135 23.1541ZM81.8391 23V15.3636H83.2759V16.5767H83.3555C83.4947 16.1657 83.7399 15.8426 84.0913 15.6072C84.4459 15.3686 84.8469 15.2493 85.2944 15.2493C85.3872 15.2493 85.4966 15.2526 85.6225 15.2592C85.7518 15.2659 85.8529 15.2741 85.9258 15.2841V16.706C85.8661 16.6894 85.7601 16.6712 85.6076 16.6513C85.4551 16.6281 85.3027 16.6165 85.1502 16.6165C84.7989 16.6165 84.4857 16.6911 84.2106 16.8402C83.9388 16.986 83.7234 17.1899 83.5643 17.4517C83.4052 17.7102 83.3256 18.0052 83.3256 18.3366V23H81.8391ZM92.9345 17.228L91.5872 17.4666C91.5308 17.2943 91.4413 17.1302 91.3187 16.9744C91.1994 16.8187 91.037 16.6911 90.8315 16.5916C90.626 16.4922 90.3691 16.4425 90.0609 16.4425C89.64 16.4425 89.2886 16.5369 89.0069 16.7259C88.7252 16.9115 88.5843 17.1518 88.5843 17.4467C88.5843 17.7019 88.6788 17.9074 88.8677 18.0632C89.0566 18.219 89.3616 18.3466 89.7825 18.446L90.9956 18.7244C91.6982 18.8868 92.2219 19.1371 92.5666 19.4751C92.9113 19.8132 93.0836 20.2524 93.0836 20.7926C93.0836 21.25 92.9511 21.6577 92.6859 22.0156C92.4241 22.3703 92.0578 22.6487 91.5872 22.8509C91.1199 23.053 90.5779 23.1541 89.9615 23.1541C89.1064 23.1541 88.4087 22.9718 87.8684 22.6072C87.3282 22.2393 86.9967 21.7173 86.8741 21.0412L88.3109 20.8224C88.4004 21.197 88.5843 21.4804 88.8627 21.6726C89.1412 21.8615 89.5041 21.956 89.9515 21.956C90.4387 21.956 90.8282 21.8549 91.1199 21.6527C91.4115 21.4472 91.5574 21.197 91.5574 20.902C91.5574 20.6634 91.4679 20.4628 91.2889 20.3004C91.1132 20.138 90.8431 20.0154 90.4785 19.9325L89.1859 19.6491C88.4733 19.4867 87.9463 19.2282 87.6049 18.8736C87.2669 18.5189 87.0978 18.0698 87.0978 17.5263C87.0978 17.0755 87.2238 16.6811 87.4757 16.343C87.7276 16.005 88.0756 15.7415 88.5197 15.5526C88.9638 15.3603 89.4726 15.2642 90.046 15.2642C90.8713 15.2642 91.5209 15.4432 91.9949 15.8011C92.4688 16.1558 92.782 16.6314 92.9345 17.228Z" fill="white"/>
</svg>
