<svg width="208" height="36" viewBox="0 0 208 36" fill="none" xmlns="http://www.w3.org/2000/svg">
<rect width="208" height="36" rx="4" fill="white" fill-opacity="0.1"/>
<path fill-rule="evenodd" clip-rule="evenodd" d="M19.75 21.75H17.4773C16.6614 21.75 16 21.1904 16 20.5V11.75C16 11.0596 16.6614 10.5 17.4773 10.5H30.7727C31.5886 10.5 32.25 11.0596 32.25 11.75L32.25 14.25H34.5227C35.3386 14.25 36 14.8796 36 15.6562V24.0938C36 24.8704 35.3386 25.5 34.5227 25.5H21.2273C20.4114 25.5 19.75 24.8704 19.75 24.0938V21.75ZM21 14C20.1716 14 19.5 14.6716 19.5 15.5V20.25H17.5V12H30.75L30.75 14H21ZM27.875 22.375C29.2557 22.375 30.375 21.2557 30.375 19.875C30.375 18.4943 29.2557 17.375 27.875 17.375C26.4943 17.375 25.375 18.4943 25.375 19.875C25.375 21.2557 26.4943 22.375 27.875 22.375Z" fill="white"/>
<path d="M49.1186 23V12.8182H52.7479C53.54 12.8182 54.1963 12.9624 54.7166 13.2507C55.237 13.5391 55.6264 13.9335 55.8849 14.4339C56.1435 14.9311 56.2727 15.4912 56.2727 16.1143C56.2727 16.7408 56.1418 17.3042 55.88 17.8047C55.6214 18.3018 55.2304 18.6963 54.7067 18.9879C54.1863 19.2763 53.5317 19.4205 52.7429 19.4205H50.2472V18.1179H52.6037C53.1042 18.1179 53.5102 18.0317 53.8217 17.8594C54.1333 17.6837 54.362 17.4451 54.5078 17.1435C54.6536 16.8419 54.7266 16.4988 54.7266 16.1143C54.7266 15.7299 54.6536 15.3885 54.5078 15.0902C54.362 14.7919 54.1316 14.5582 53.8168 14.3892C53.5052 14.2202 53.0942 14.1357 52.5838 14.1357H50.6548V23H49.1186ZM60.1083 23.169C59.6244 23.169 59.1869 23.0795 58.7958 22.9006C58.4047 22.7183 58.0948 22.4548 57.8661 22.1101C57.6407 21.7654 57.5281 21.3428 57.5281 20.8423C57.5281 20.4115 57.6109 20.0568 57.7766 19.7784C57.9424 19.5 58.1661 19.2796 58.4478 19.1172C58.7295 18.9548 59.0444 18.8321 59.3924 18.7493C59.7404 18.6664 60.0951 18.6035 60.4563 18.5604C60.9137 18.5073 61.2849 18.4643 61.57 18.4311C61.855 18.3946 62.0621 18.3366 62.1914 18.2571C62.3207 18.1776 62.3853 18.0483 62.3853 17.8693V17.8345C62.3853 17.4003 62.2627 17.0639 62.0174 16.8253C61.7755 16.5866 61.4142 16.4673 60.9336 16.4673C60.4331 16.4673 60.0387 16.5784 59.7504 16.8004C59.4653 17.0192 59.2681 17.2628 59.1587 17.5312L57.7617 17.2131C57.9274 16.7491 58.1694 16.3745 58.4876 16.0895C58.8091 15.8011 59.1786 15.5923 59.5962 15.4631C60.0138 15.3305 60.453 15.2642 60.9137 15.2642C61.2186 15.2642 61.5418 15.3007 61.8832 15.3736C62.2279 15.4432 62.5494 15.5724 62.8477 15.7614C63.1493 15.9503 63.3962 16.2204 63.5884 16.5717C63.7807 16.9197 63.8768 17.3722 63.8768 17.929V23H62.4251V21.956H62.3654C62.2693 22.1482 62.1251 22.3371 61.9329 22.5227C61.7406 22.7083 61.4937 22.8625 61.1921 22.9851C60.8905 23.1077 60.5292 23.169 60.1083 23.169ZM60.4315 21.9759C60.8424 21.9759 61.1938 21.8946 61.4854 21.7322C61.7804 21.5698 62.0041 21.3577 62.1566 21.0959C62.3124 20.8307 62.3903 20.5473 62.3903 20.2457V19.2614C62.3372 19.3144 62.2345 19.3641 62.082 19.4105C61.9329 19.4536 61.7622 19.4917 61.57 19.5249C61.3777 19.5547 61.1905 19.5829 61.0082 19.6094C60.8259 19.6326 60.6734 19.6525 60.5508 19.669C60.2624 19.7055 59.9989 19.7668 59.7603 19.853C59.525 19.9392 59.3361 20.0634 59.1935 20.2259C59.0543 20.3849 58.9847 20.5971 58.9847 20.8622C58.9847 21.2301 59.1206 21.5085 59.3924 21.6974C59.6642 21.883 60.0105 21.9759 60.4315 21.9759ZM66.5229 25.8636C66.3008 25.8636 66.0987 25.8454 65.9164 25.8089C65.7341 25.7758 65.5982 25.7393 65.5087 25.6996L65.8667 24.4815C66.1384 24.5545 66.3804 24.5859 66.5925 24.576C66.8046 24.5661 66.9919 24.4865 67.1543 24.3374C67.32 24.1882 67.4658 23.9446 67.5918 23.6065L67.7757 23.0994L64.9817 15.3636H66.5726L68.5066 21.2898H68.5861L70.5201 15.3636H72.1159L68.9689 24.0192C68.8231 24.4169 68.6375 24.7533 68.4121 25.0284C68.1867 25.3068 67.9183 25.5156 67.6067 25.6548C67.2952 25.794 66.9339 25.8636 66.5229 25.8636ZM73.513 23V15.3636H74.9398V16.6065H75.0343C75.1934 16.1856 75.4535 15.8575 75.8148 15.6222C76.1761 15.3835 76.6086 15.2642 77.1124 15.2642C77.6228 15.2642 78.0504 15.3835 78.3951 15.6222C78.7431 15.8608 78.9999 16.1889 79.1657 16.6065H79.2452C79.4275 16.1989 79.7175 15.8741 80.1152 15.6321C80.513 15.3868 80.9869 15.2642 81.5371 15.2642C82.2298 15.2642 82.7949 15.4813 83.2324 15.9155C83.6732 16.3497 83.8936 17.0043 83.8936 17.8793V23H82.4071V18.0185C82.4071 17.5014 82.2663 17.1269 81.9846 16.8949C81.7028 16.6629 81.3664 16.5469 80.9753 16.5469C80.4914 16.5469 80.1152 16.696 79.8468 16.9943C79.5783 17.2893 79.4441 17.6688 79.4441 18.1328V23H77.9625V17.924C77.9625 17.5097 77.8333 17.1766 77.5748 16.9247C77.3162 16.6728 76.9798 16.5469 76.5655 16.5469C76.2838 16.5469 76.0236 16.6214 75.785 16.7706C75.5497 16.9164 75.3591 17.1203 75.2132 17.3821C75.0707 17.6439 74.9995 17.9472 74.9995 18.2919V23H73.513ZM89.1772 23.1541C88.4248 23.1541 87.7769 22.9934 87.2333 22.6719C86.6931 22.3471 86.2754 21.8913 85.9805 21.3047C85.6888 20.7147 85.543 20.0237 85.543 19.2315C85.543 18.4493 85.6888 17.7599 85.9805 17.1634C86.2754 16.5668 86.6864 16.1011 87.2134 15.7663C87.7437 15.4316 88.3635 15.2642 89.0728 15.2642C89.5037 15.2642 89.9213 15.3355 90.3256 15.478C90.73 15.6205 91.0929 15.8442 91.4144 16.1491C91.7359 16.4541 91.9895 16.8501 92.1751 17.3374C92.3607 17.8213 92.4535 18.4096 92.4535 19.1023V19.6293H86.3832V18.5156H90.9968C90.9968 18.1245 90.9173 17.7782 90.7582 17.4766C90.5991 17.1716 90.3754 16.9313 90.087 16.7557C89.802 16.58 89.4672 16.4922 89.0827 16.4922C88.6651 16.4922 88.3005 16.5949 87.989 16.8004C87.6808 17.0026 87.4421 17.2678 87.2731 17.5959C87.1074 17.9207 87.0245 18.2737 87.0245 18.6548V19.5249C87.0245 20.0353 87.114 20.4695 87.293 20.8274C87.4753 21.1854 87.7288 21.4588 88.0536 21.6477C88.3784 21.8333 88.7579 21.9261 89.1921 21.9261C89.4738 21.9261 89.7307 21.8864 89.9627 21.8068C90.1947 21.724 90.3952 21.6013 90.5643 21.4389C90.7333 21.2765 90.8626 21.076 90.9521 20.8374L92.359 21.0909C92.2463 21.5052 92.0442 21.8681 91.7525 22.1797C91.4641 22.4879 91.1012 22.7282 90.6637 22.9006C90.2295 23.0696 89.734 23.1541 89.1772 23.1541ZM95.5893 18.4659V23H94.1028V15.3636H95.5297V16.6065H95.6241C95.7998 16.2022 96.0749 15.8774 96.4494 15.6321C96.8272 15.3868 97.3029 15.2642 97.8762 15.2642C98.3966 15.2642 98.8523 15.3736 99.2434 15.5923C99.6345 15.8078 99.9378 16.1293 100.153 16.5568C100.369 16.9844 100.476 17.513 100.476 18.1428V23H98.9899V18.3217C98.9899 17.7682 98.8457 17.3357 98.5574 17.0241C98.269 16.7093 97.8729 16.5518 97.3691 16.5518C97.0244 16.5518 96.7179 16.6264 96.4494 16.7756C96.1842 16.9247 95.9738 17.1435 95.818 17.4318C95.6655 17.7169 95.5893 18.0616 95.5893 18.4659ZM106.035 15.3636V16.5568H101.863V15.3636H106.035ZM102.982 13.5341H104.469V20.7578C104.469 21.0462 104.512 21.2633 104.598 21.4091C104.684 21.5516 104.795 21.6494 104.931 21.7024C105.07 21.7521 105.221 21.777 105.383 21.777C105.503 21.777 105.607 21.7687 105.697 21.7521C105.786 21.7356 105.856 21.7223 105.905 21.7124L106.174 22.9403C106.088 22.9735 105.965 23.0066 105.806 23.0398C105.647 23.0762 105.448 23.0961 105.209 23.0994C104.818 23.1061 104.454 23.0365 104.116 22.8906C103.778 22.7448 103.504 22.5194 103.295 22.2145C103.086 21.9096 102.982 21.5268 102.982 21.0661V13.5341ZM113.278 17.228L111.931 17.4666C111.875 17.2943 111.785 17.1302 111.662 16.9744C111.543 16.8187 111.381 16.6911 111.175 16.5916C110.97 16.4922 110.713 16.4425 110.405 16.4425C109.984 16.4425 109.632 16.5369 109.351 16.7259C109.069 16.9115 108.928 17.1518 108.928 17.4467C108.928 17.7019 109.023 17.9074 109.211 18.0632C109.4 18.219 109.705 18.3466 110.126 18.446L111.339 18.7244C112.042 18.8868 112.566 19.1371 112.91 19.4751C113.255 19.8132 113.427 20.2524 113.427 20.7926C113.427 21.25 113.295 21.6577 113.03 22.0156C112.768 22.3703 112.402 22.6487 111.931 22.8509C111.464 23.053 110.922 23.1541 110.305 23.1541C109.45 23.1541 108.752 22.9718 108.212 22.6072C107.672 22.2393 107.34 21.7173 107.218 21.0412L108.655 20.8224C108.744 21.197 108.928 21.4804 109.206 21.6726C109.485 21.8615 109.848 21.956 110.295 21.956C110.782 21.956 111.172 21.8549 111.464 21.6527C111.755 21.4472 111.901 21.197 111.901 20.902C111.901 20.6634 111.812 20.4628 111.633 20.3004C111.457 20.138 111.187 20.0154 110.822 19.9325L109.53 19.6491C108.817 19.4867 108.29 19.2282 107.949 18.8736C107.611 18.5189 107.442 18.0698 107.442 17.5263C107.442 17.0755 107.568 16.6811 107.819 16.343C108.071 16.005 108.419 15.7415 108.863 15.5526C109.308 15.3603 109.816 15.2642 110.39 15.2642C111.215 15.2642 111.865 15.4432 112.339 15.8011C112.813 16.1558 113.126 16.6314 113.278 17.228Z" fill="white"/>
</svg>
