<svg width="208" height="36" viewBox="0 0 208 36" fill="none" xmlns="http://www.w3.org/2000/svg">
<g opacity="0.8">
<path fill-rule="evenodd" clip-rule="evenodd" d="M34.8081 15.4167C34.6831 15.1667 34.4248 15 34.1414 15H27.0914L27.8664 8.81667C27.9081 8.5 27.7331 8.18333 27.4331 8.05833C27.3414 8.01667 27.2414 8 27.1498 8C26.9331 8 26.7248 8.09167 26.5831 8.25833L17.8331 18.7583C17.6498 18.975 17.6164 19.2833 17.7331 19.5333C17.8498 19.7917 18.1164 19.9583 18.3914 19.9583H25.4414L24.6664 26.1333C24.6331 26.4583 24.8081 26.7667 25.0998 26.9C25.3998 27.025 25.7498 26.9417 25.9581 26.6917L34.7081 16.1917C34.8831 15.975 34.9248 15.675 34.8081 15.4167ZM26.4248 23.85L26.9914 19.3167C27.0164 19.1083 26.9498 18.9 26.8164 18.7417C26.6748 18.5917 26.4748 18.5 26.2664 18.5H19.9498L26.1081 11.1083L25.5414 15.6333C25.5164 15.8417 25.5831 16.05 25.7248 16.2083C25.8581 16.3667 26.0581 16.4583 26.2664 16.4583H32.5831L26.4248 23.85Z" fill="white"/>
</g>
<path opacity="0.8" d="M49.1186 23V12.8182H52.7479C53.54 12.8182 54.1963 12.9624 54.7166 13.2507C55.237 13.5391 55.6264 13.9335 55.8849 14.4339C56.1435 14.9311 56.2727 15.4912 56.2727 16.1143C56.2727 16.7408 56.1418 17.3042 55.88 17.8047C55.6214 18.3018 55.2304 18.6963 54.7067 18.9879C54.1863 19.2763 53.5317 19.4205 52.7429 19.4205H50.2472V18.1179H52.6037C53.1042 18.1179 53.5102 18.0317 53.8217 17.8594C54.1333 17.6837 54.362 17.4451 54.5078 17.1435C54.6536 16.8419 54.7266 16.4988 54.7266 16.1143C54.7266 15.7299 54.6536 15.3885 54.5078 15.0902C54.362 14.7919 54.1316 14.5582 53.8168 14.3892C53.5052 14.2202 53.0942 14.1357 52.5838 14.1357H50.6548V23H49.1186ZM59.4409 12.8182V23H57.9544V12.8182H59.4409ZM66.2781 19.8331V15.3636H67.7695V23H66.3079V21.6776H66.2283C66.0527 22.0852 65.771 22.425 65.3832 22.6967C64.9987 22.9652 64.5198 23.0994 63.9464 23.0994C63.4558 23.0994 63.0217 22.9917 62.6438 22.7763C62.2693 22.5575 61.9743 22.2344 61.7589 21.8068C61.5468 21.3793 61.4407 20.8506 61.4407 20.2209V15.3636H62.9272V20.0419C62.9272 20.5623 63.0714 20.9766 63.3597 21.2848C63.6481 21.593 64.0226 21.7472 64.4833 21.7472C64.7617 21.7472 65.0385 21.6776 65.3136 21.5384C65.592 21.3991 65.8223 21.1887 66.0046 20.907C66.1902 20.6252 66.2814 20.2673 66.2781 19.8331ZM72.9686 26.0227C72.362 26.0227 71.84 25.9432 71.4025 25.7841C70.9683 25.625 70.6137 25.4145 70.3386 25.1527C70.0635 24.8909 69.858 24.6042 69.7221 24.2926L70.9998 23.7656C71.0893 23.9115 71.2086 24.0656 71.3578 24.228C71.5102 24.3937 71.7157 24.5346 71.9743 24.6506C72.2361 24.7666 72.5725 24.8246 72.9835 24.8246C73.5469 24.8246 74.0126 24.687 74.3805 24.4119C74.7484 24.1402 74.9324 23.706 74.9324 23.1094V21.608H74.8379C74.7484 21.7704 74.6191 21.951 74.4501 22.1499C74.2844 22.3487 74.0557 22.5211 73.764 22.6669C73.4724 22.8127 73.0929 22.8857 72.6255 22.8857C72.0223 22.8857 71.4788 22.7448 70.9949 22.4631C70.5143 22.178 70.1331 21.7588 69.8514 21.2053C69.573 20.6484 69.4338 19.964 69.4338 19.152C69.4338 18.34 69.5713 17.6439 69.8464 17.0639C70.1248 16.4839 70.506 16.0398 70.9899 15.7315C71.4738 15.42 72.0223 15.2642 72.6355 15.2642C73.1094 15.2642 73.4922 15.3438 73.7839 15.5028C74.0756 15.6586 74.3026 15.8409 74.465 16.0497C74.6307 16.2585 74.7583 16.4425 74.8478 16.6016H74.9572V15.3636H76.4139V23.169C76.4139 23.8253 76.2614 24.3639 75.9565 24.7848C75.6516 25.2057 75.2389 25.5173 74.7186 25.7195C74.2015 25.9216 73.6182 26.0227 72.9686 26.0227ZM72.9537 21.6527C73.3812 21.6527 73.7425 21.5533 74.0375 21.3544C74.3358 21.1522 74.5611 20.8639 74.7136 20.4893C74.8694 20.1115 74.9473 19.6591 74.9473 19.1321C74.9473 18.6184 74.871 18.166 74.7186 17.7749C74.5661 17.3838 74.3424 17.0788 74.0474 16.8601C73.7524 16.638 73.3878 16.527 72.9537 16.527C72.5062 16.527 72.1333 16.643 71.835 16.875C71.5368 17.1037 71.3114 17.4152 71.1589 17.8097C71.0098 18.2041 70.9352 18.6449 70.9352 19.1321C70.9352 19.6326 71.0114 20.0717 71.1639 20.4496C71.3163 20.8274 71.5417 21.1224 71.84 21.3345C72.1416 21.5466 72.5128 21.6527 72.9537 21.6527ZM78.4075 23V15.3636H79.894V23H78.4075ZM79.1582 14.1854C78.8997 14.1854 78.6776 14.0992 78.492 13.9268C78.3097 13.7512 78.2186 13.5424 78.2186 13.3004C78.2186 13.0552 78.3097 12.8464 78.492 12.674C78.6776 12.4983 78.8997 12.4105 79.1582 12.4105C79.4167 12.4105 79.6371 12.4983 79.8194 12.674C80.005 12.8464 80.0978 13.0552 80.0978 13.3004C80.0978 13.5424 80.005 13.7512 79.8194 13.9268C79.6371 14.0992 79.4167 14.1854 79.1582 14.1854ZM83.3803 18.4659V23H81.8938V15.3636H83.3207V16.6065H83.4151C83.5908 16.2022 83.8659 15.8774 84.2404 15.6321C84.6183 15.3868 85.0939 15.2642 85.6673 15.2642C86.1876 15.2642 86.6433 15.3736 87.0344 15.5923C87.4255 15.8078 87.7288 16.1293 87.9442 16.5568C88.1597 16.9844 88.2674 17.513 88.2674 18.1428V23H86.7809V18.3217C86.7809 17.7682 86.6367 17.3357 86.3484 17.0241C86.06 16.7093 85.6639 16.5518 85.1602 16.5518C84.8155 16.5518 84.5089 16.6264 84.2404 16.7756C83.9753 16.9247 83.7648 17.1435 83.609 17.4318C83.4566 17.7169 83.3803 18.0616 83.3803 18.4659ZM95.9833 17.228L94.636 17.4666C94.5797 17.2943 94.4902 17.1302 94.3675 16.9744C94.2482 16.8187 94.0858 16.6911 93.8803 16.5916C93.6748 16.4922 93.418 16.4425 93.1097 16.4425C92.6888 16.4425 92.3375 16.5369 92.0558 16.7259C91.774 16.9115 91.6332 17.1518 91.6332 17.4467C91.6332 17.7019 91.7276 17.9074 91.9165 18.0632C92.1055 18.219 92.4104 18.3466 92.8313 18.446L94.0444 18.7244C94.747 18.8868 95.2707 19.1371 95.6154 19.4751C95.9601 19.8132 96.1325 20.2524 96.1325 20.7926C96.1325 21.25 95.9999 21.6577 95.7347 22.0156C95.4729 22.3703 95.1067 22.6487 94.636 22.8509C94.1687 23.053 93.6268 23.1541 93.0103 23.1541C92.1552 23.1541 91.4575 22.9718 90.9173 22.6072C90.377 22.2393 90.0456 21.7173 89.9229 21.0412L91.3597 20.8224C91.4492 21.197 91.6332 21.4804 91.9116 21.6726C92.19 21.8615 92.5529 21.956 93.0004 21.956C93.4876 21.956 93.877 21.8549 94.1687 21.6527C94.4603 21.4472 94.6062 21.197 94.6062 20.902C94.6062 20.6634 94.5167 20.4628 94.3377 20.3004C94.1621 20.138 93.8919 20.0154 93.5273 19.9325L92.2347 19.6491C91.5221 19.4867 90.9951 19.2282 90.6538 18.8736C90.3157 18.5189 90.1467 18.0698 90.1467 17.5263C90.1467 17.0755 90.2726 16.6811 90.5245 16.343C90.7764 16.005 91.1244 15.7415 91.5685 15.5526C92.0127 15.3603 92.5214 15.2642 93.0948 15.2642C93.9201 15.2642 94.5697 15.4432 95.0437 15.8011C95.5176 16.1558 95.8308 16.6314 95.9833 17.228Z" fill="white"/>
</svg>
