<svg width="208" height="36" viewBox="0 0 208 36" fill="none" xmlns="http://www.w3.org/2000/svg">
<g opacity="0.8">
<path d="M19.4389 11.4917L31.924 16.225L27.5643 18.1656C26.9254 18.4416 26.4159 18.9492 26.1388 19.5856L24.2025 23.9284L19.4508 11.4917H19.4389ZM18.1441 9.125C17.9784 9.12542 17.8152 9.16597 17.6688 9.2432C17.5223 9.32042 17.3969 9.43197 17.3033 9.56824C17.2098 9.70451 17.1509 9.86141 17.1318 10.0254C17.1127 10.1894 17.134 10.3555 17.1937 10.5095L23.1333 26.2122C23.2063 26.4075 23.3377 26.5758 23.5098 26.6943C23.6819 26.8128 23.8864 26.8758 24.0956 26.8749C24.296 26.878 24.4926 26.821 24.66 26.7113C24.8274 26.6015 24.9577 26.4441 25.034 26.2595L27.7187 20.2601C27.8175 20.0249 28.0053 19.8378 28.2414 19.7394L34.276 17.0651C34.4599 16.9802 34.6147 16.8434 34.7211 16.6716C34.8275 16.4998 34.8808 16.3006 34.8745 16.0989C34.8682 15.8971 34.8024 15.7017 34.6854 15.5369C34.5684 15.372 34.4054 15.245 34.2166 15.1718L18.4647 9.25515C18.3433 9.20891 18.2146 9.18486 18.0847 9.18415L18.1441 9.125Z" fill="white"/>
</g>
<path opacity="0.8" d="M48.6165 14.1406V12.8182H56.4964V14.1406H53.3196V23H51.7884V14.1406H48.6165ZM60.2276 23.1541C59.5117 23.1541 58.887 22.9901 58.3533 22.6619C57.8197 22.3338 57.4054 21.8748 57.1104 21.2848C56.8155 20.6948 56.668 20.0054 56.668 19.2166C56.668 18.4245 56.8155 17.7318 57.1104 17.1385C57.4054 16.5452 57.8197 16.0845 58.3533 15.7564C58.887 15.4283 59.5117 15.2642 60.2276 15.2642C60.9435 15.2642 61.5683 15.4283 62.1019 15.7564C62.6355 16.0845 63.0498 16.5452 63.3448 17.1385C63.6398 17.7318 63.7873 18.4245 63.7873 19.2166C63.7873 20.0054 63.6398 20.6948 63.3448 21.2848C63.0498 21.8748 62.6355 22.3338 62.1019 22.6619C61.5683 22.9901 60.9435 23.1541 60.2276 23.1541ZM60.2326 21.9062C60.6966 21.9062 61.0811 21.7836 61.386 21.5384C61.6909 21.2931 61.9163 20.9666 62.0621 20.5589C62.2113 20.1513 62.2859 19.7022 62.2859 19.2116C62.2859 18.7244 62.2113 18.277 62.0621 17.8693C61.9163 17.4583 61.6909 17.1286 61.386 16.88C61.0811 16.6314 60.6966 16.5071 60.2326 16.5071C59.7653 16.5071 59.3775 16.6314 59.0692 16.88C58.7643 17.1286 58.5373 17.4583 58.3881 17.8693C58.2423 18.277 58.1694 18.7244 58.1694 19.2116C58.1694 19.7022 58.2423 20.1513 58.3881 20.5589C58.5373 20.9666 58.7643 21.2931 59.0692 21.5384C59.3775 21.7836 59.7653 21.9062 60.2326 21.9062ZM68.6632 23.1541C67.9473 23.1541 67.3225 22.9901 66.7889 22.6619C66.2553 22.3338 65.841 21.8748 65.546 21.2848C65.251 20.6948 65.1035 20.0054 65.1035 19.2166C65.1035 18.4245 65.251 17.7318 65.546 17.1385C65.841 16.5452 66.2553 16.0845 66.7889 15.7564C67.3225 15.4283 67.9473 15.2642 68.6632 15.2642C69.3791 15.2642 70.0038 15.4283 70.5375 15.7564C71.0711 16.0845 71.4854 16.5452 71.7804 17.1385C72.0753 17.7318 72.2228 18.4245 72.2228 19.2166C72.2228 20.0054 72.0753 20.6948 71.7804 21.2848C71.4854 21.8748 71.0711 22.3338 70.5375 22.6619C70.0038 22.9901 69.3791 23.1541 68.6632 23.1541ZM68.6681 21.9062C69.1322 21.9062 69.5166 21.7836 69.8216 21.5384C70.1265 21.2931 70.3519 20.9666 70.4977 20.5589C70.6468 20.1513 70.7214 19.7022 70.7214 19.2116C70.7214 18.7244 70.6468 18.277 70.4977 17.8693C70.3519 17.4583 70.1265 17.1286 69.8216 16.88C69.5166 16.6314 69.1322 16.5071 68.6681 16.5071C68.2008 16.5071 67.813 16.6314 67.5048 16.88C67.1999 17.1286 66.9728 17.4583 66.8237 17.8693C66.6779 18.277 66.6049 18.7244 66.6049 19.2116C66.6049 19.7022 66.6779 20.1513 66.8237 20.5589C66.9728 20.9666 67.1999 21.2931 67.5048 21.5384C67.813 21.7836 68.2008 21.9062 68.6681 21.9062ZM75.3686 12.8182V23H73.8821V12.8182H75.3686ZM83.0907 17.228L81.7434 17.4666C81.6871 17.2943 81.5976 17.1302 81.475 16.9744C81.3556 16.8187 81.1932 16.6911 80.9877 16.5916C80.7823 16.4922 80.5254 16.4425 80.2172 16.4425C79.7962 16.4425 79.4449 16.5369 79.1632 16.7259C78.8815 16.9115 78.7406 17.1518 78.7406 17.4467C78.7406 17.7019 78.835 17.9074 79.024 18.0632C79.2129 18.219 79.5178 18.3466 79.9387 18.446L81.1518 18.7244C81.8545 18.8868 82.3781 19.1371 82.7228 19.4751C83.0675 19.8132 83.2399 20.2524 83.2399 20.7926C83.2399 21.25 83.1073 21.6577 82.8422 22.0156C82.5803 22.3703 82.2141 22.6487 81.7434 22.8509C81.2761 23.053 80.7342 23.1541 80.1177 23.1541C79.2626 23.1541 78.5649 22.9718 78.0247 22.6072C77.4844 22.2393 77.153 21.7173 77.0304 21.0412L78.4672 20.8224C78.5566 21.197 78.7406 21.4804 79.019 21.6726C79.2974 21.8615 79.6603 21.956 80.1078 21.956C80.595 21.956 80.9844 21.8549 81.2761 21.6527C81.5678 21.4472 81.7136 21.197 81.7136 20.902C81.7136 20.6634 81.6241 20.4628 81.4451 20.3004C81.2695 20.138 80.9993 20.0154 80.6348 19.9325L79.3422 19.6491C78.6296 19.4867 78.1026 19.2282 77.7612 18.8736C77.4231 18.5189 77.2541 18.0698 77.2541 17.5263C77.2541 17.0755 77.38 16.6811 77.6319 16.343C77.8838 16.005 78.2318 15.7415 78.676 15.5526C79.1201 15.3603 79.6288 15.2642 80.2022 15.2642C81.0275 15.2642 81.6771 15.4432 82.1511 15.8011C82.6251 16.1558 82.9383 16.6314 83.0907 17.228Z" fill="white"/>
</svg>
